<svg width="254" height="80" viewBox="0 0 254 80" fill="none" xmlns="http://www.w3.org/2000/svg">
<g clip-path="url(#clip0_5360_2890)">
<path d="M248.067 16.3864V16.3997C246.9 21.0664 243.557 24.4497 241.153 26.5831L241.093 26.6364C240.72 26.9597 240.327 27.2664 239.917 27.5464C240.093 27.9131 240.247 28.2864 240.363 28.6731L240.383 28.7431C240.843 30.2797 240.957 31.8997 240.727 33.4897C240.288 36.1434 239.571 38.7434 238.587 41.2464C238.153 42.4631 237.74 43.6131 237.42 44.7464C236.55 47.7731 235.553 51.3531 234.753 55.0131C234.182 57.6817 233.982 60.4163 234.157 63.1397C234.261 64.3429 234.045 65.5521 233.53 66.6446C233.015 67.7371 232.221 68.6739 231.227 69.3597C229.295 70.8503 227.131 72.0105 224.82 72.7931C221.013 73.9531 218.353 72.9431 216.797 71.8897C216.54 71.7176 216.296 71.5295 216.063 71.3264C214.14 72.5331 211.99 73.3264 209.743 73.6531C208.843 73.7864 207.94 73.8564 207.033 73.8631C205.271 73.9135 203.518 73.5903 201.89 72.9146C200.262 72.239 198.795 71.2263 197.587 69.9431C197.268 69.6083 196.967 69.2567 196.687 68.8897C195.843 69.4964 194.953 70.0431 194.03 70.5197C191.421 71.9013 188.441 72.4173 185.52 71.9931C183.055 71.7211 180.721 70.7392 178.803 69.1664C176.601 67.2129 175.159 64.5453 174.73 61.6331C174.593 60.9094 174.5 60.178 174.453 59.4431C173.153 61.2997 171.75 63.0397 170.397 64.6764C167.89 67.8461 164.71 70.4192 161.087 72.2097C157.326 74.0469 153.015 74.4165 148.997 73.2464C146.78 72.6991 144.665 71.8023 142.73 70.5897C141.703 69.921 140.778 69.1082 139.983 68.1764C139.193 68.9931 138.403 69.7431 137.65 70.4664C137.19 70.9064 136.723 71.3464 136.27 71.7931C135.563 72.4918 134.723 73.0417 133.801 73.4104C132.878 73.7791 131.89 73.9591 130.897 73.9397C130.37 73.9397 129.843 73.8964 129.32 73.8097C127.021 73.4695 124.777 72.8261 122.647 71.8964L122.58 71.8631C120.425 70.9042 118.584 69.3587 117.267 67.4031C115.27 69.0351 113.071 70.402 110.723 71.4697C108.393 72.5966 105.884 73.3116 103.31 73.5831C101.043 73.8364 98.7632 73.9264 96.4865 73.8497C92.671 73.7103 88.9662 72.5299 85.7732 70.4364C82.4345 68.1639 80.0513 64.7398 79.0799 60.8197C79.0632 60.7364 79.0365 60.6531 79.0165 60.5697C77.9165 61.0764 76.7632 61.4531 75.5765 61.6864C72.4859 62.3664 69.2647 62.1395 66.2999 61.0331C64.7406 60.442 63.357 59.4646 62.2789 58.1923C61.2009 56.9201 60.4637 55.3949 60.1365 53.7597C57.7185 57.2154 55.5154 60.8167 53.5399 64.5431C53.3332 64.9264 53.1265 65.3931 52.8999 65.8764C52.457 66.893 51.9481 67.8795 51.3765 68.8297C50.3997 70.4559 49.01 71.7947 47.3486 72.7103C45.6872 73.6259 43.8131 74.0857 41.9165 74.0431H41.8832C39.8639 74.1018 37.861 73.6646 36.0499 72.7697C35.8454 72.661 35.6452 72.5442 35.4499 72.4197C35.1702 72.5626 34.8879 72.7004 34.6032 72.8331C32.0041 74.1426 29.1965 74.9886 26.3065 75.3331L25.8399 75.3864C24.6465 75.5031 23.3332 75.6331 21.9499 75.6331C21.5565 75.6331 21.1532 75.6197 20.7532 75.5997C16.7731 75.4314 12.9502 73.9987 9.83988 71.5097C6.69695 68.9385 4.54724 65.3533 3.75988 61.3697C3.19866 58.6764 3.11404 55.9056 3.50988 53.1831C4.08988 49.2164 5.37654 45.3897 7.30321 41.8764C8.77321 39.0697 10.5265 36.4197 12.5365 33.9664C14.7246 31.3003 17.3159 28.9924 20.2165 27.1264C22.5664 25.5944 25.1937 24.5378 27.9499 24.0164C31.7065 23.3164 35.3165 24.2164 39.0065 26.7697C40.9185 28.0782 42.5624 29.7403 43.8499 31.6664C46.3699 28.1431 49.5265 26.1064 53.2299 25.6264C55.1004 25.3212 57.0195 25.5912 58.7332 26.4007C60.4468 27.2102 61.8743 28.5211 62.8265 30.1597C63.8919 29.4286 65.017 28.7886 66.1899 28.2464C68.6515 27.0323 71.373 26.4395 74.1165 26.5197C78.3499 26.7064 81.5699 28.1097 83.9499 30.8131C84.8965 31.8897 85.6165 33.1464 86.0632 34.5131C87.0165 33.3564 88.0599 32.2797 89.1799 31.2897C92.1694 28.5192 95.889 26.6617 99.8999 25.9364C101.371 25.7261 102.861 25.6791 104.343 25.7964L105.28 25.8297C107.522 25.9147 109.725 26.4462 111.76 27.3931C114.342 28.5026 116.536 30.3543 118.063 32.7131C118.387 32.1797 118.737 31.6464 119.103 31.1364C121.303 28.0897 124.057 26.2931 127.29 25.7897C128.722 25.5195 130.195 25.5482 131.616 25.874C133.037 26.1998 134.375 26.8157 135.547 27.6831C136.929 28.7551 137.971 30.2053 138.547 31.8578C139.122 33.5103 139.205 35.2941 138.787 36.9931C138.663 37.5764 138.533 38.1631 138.403 38.7464C138.93 37.6264 139.467 36.4964 140.027 35.3797C141.723 31.9631 143.96 29.6297 146.86 28.2531C148.633 27.3696 150.612 26.9856 152.587 27.1424C154.561 27.2992 156.456 27.9908 158.067 29.1431C159.53 30.1431 161.32 32.0864 161.567 35.7097C161.646 37.8942 161.31 40.0739 160.577 42.1331L160.143 43.5431L160.413 42.9231C160.963 41.6697 161.52 40.4131 162.083 39.1731C163.803 35.3564 165.567 31.4597 170.283 28.5431C171.324 27.8683 172.438 27.3125 173.603 26.8864C177.257 25.6464 184.797 25.9531 187.46 30.7864C188.879 29.4898 190.483 28.4113 192.22 27.5864C194.585 26.4128 197.19 25.8035 199.83 25.8064L200.077 25.8131C202.092 25.7578 204.105 26.013 206.043 26.5697C207.29 26.9531 208.453 27.5664 209.477 28.3764C212.377 27.3464 216.067 27.4097 218.787 29.5531C219.323 29.9797 219.803 30.4797 220.21 31.0331C221.037 29.7331 221.977 28.5031 223.017 27.3664C224.183 26.0664 225.59 25.0097 227.16 24.2497C226.573 22.8557 226.138 21.403 225.86 19.9164C225.56 18.4991 225.387 17.0578 225.343 15.6097V15.4997C225.271 12.7812 226.082 10.1125 227.653 7.89306C228.621 6.50621 229.901 5.36617 231.39 4.56483C232.879 3.7635 234.536 3.3233 236.227 3.27972C238.623 3.16219 241.007 3.68207 243.137 4.78639C245.143 5.88408 246.72 7.62607 247.614 9.73092C248.508 11.8358 248.67 14.1805 248.067 16.3864Z" fill="black" stroke="white" stroke-width="6.53"/>
<path d="M248.067 16.3864V16.3997C246.9 21.0664 243.557 24.4497 241.153 26.5831L241.093 26.6364C240.72 26.9597 240.327 27.2664 239.917 27.5464C240.093 27.9131 240.247 28.2864 240.363 28.6731L240.383 28.7431C240.843 30.2797 240.957 31.8997 240.727 33.4897C240.288 36.1434 239.571 38.7434 238.587 41.2464C238.153 42.4631 237.74 43.6131 237.42 44.7464C236.55 47.7731 235.553 51.3531 234.753 55.0131C234.182 57.6817 233.982 60.4163 234.157 63.1397C234.261 64.3429 234.045 65.5521 233.53 66.6446C233.015 67.7371 232.221 68.6739 231.227 69.3597C229.295 70.8502 227.13 72.0104 224.82 72.7931C221.013 73.9531 218.353 72.9431 216.797 71.8897C216.54 71.7176 216.296 71.5295 216.063 71.3264C214.14 72.5331 211.99 73.3264 209.743 73.6531C208.843 73.7864 207.94 73.8564 207.033 73.8631C205.271 73.9135 203.518 73.5903 201.89 72.9146C200.262 72.239 198.795 71.2263 197.587 69.9431C197.268 69.6083 196.967 69.2567 196.687 68.8897C195.843 69.4964 194.953 70.0431 194.03 70.5197C191.421 71.9013 188.441 72.4173 185.52 71.9931C183.055 71.7211 180.721 70.7392 178.803 69.1664C176.601 67.2129 175.159 64.5453 174.73 61.6331C174.593 60.9094 174.5 60.178 174.453 59.4431C173.153 61.2997 171.75 63.0397 170.397 64.6764C167.89 67.8461 164.71 70.4192 161.087 72.2097C157.326 74.0469 153.015 74.4165 148.997 73.2464C146.78 72.6991 144.665 71.8023 142.73 70.5897C141.703 69.921 140.778 69.1082 139.983 68.1764C139.193 68.9931 138.403 69.7431 137.65 70.4664C137.19 70.9064 136.723 71.3464 136.27 71.7931C135.563 72.4918 134.723 73.0417 133.801 73.4104C132.878 73.7791 131.89 73.9591 130.897 73.9397C130.37 73.9397 129.843 73.8964 129.32 73.8097C127.021 73.4695 124.777 72.8261 122.647 71.8964L122.58 71.8631C120.425 70.9042 118.584 69.3587 117.267 67.4031C115.27 69.0351 113.071 70.402 110.723 71.4697C108.393 72.5966 105.884 73.3116 103.31 73.5831C101.043 73.8364 98.7632 73.9264 96.4865 73.8497C92.671 73.7103 88.9662 72.5299 85.7732 70.4364C82.4345 68.1639 80.0513 64.7398 79.0799 60.8197C79.0632 60.7364 79.0365 60.6531 79.0165 60.5697C77.9165 61.0764 76.7632 61.4531 75.5765 61.6864C72.4859 62.3664 69.2647 62.1395 66.2999 61.0331C64.7406 60.442 63.357 59.4646 62.2789 58.1923C61.2009 56.9201 60.4637 55.3949 60.1365 53.7597C57.7185 57.2154 55.5154 60.8167 53.5399 64.5431C53.3332 64.9264 53.1265 65.3931 52.8999 65.8764C52.4571 66.893 51.9482 67.8796 51.3765 68.8297C50.3997 70.4559 49.01 71.7947 47.3486 72.7103C45.6872 73.6259 43.8131 74.0857 41.9165 74.0431H41.8832C39.8639 74.1018 37.861 73.6646 36.0499 72.7697C35.8454 72.661 35.6452 72.5442 35.4499 72.4197C35.1702 72.5626 34.8879 72.7004 34.6032 72.8331C32.0041 74.1426 29.1965 74.9886 26.3065 75.3331L25.8399 75.3864C24.6465 75.5031 23.3332 75.6331 21.9499 75.6331C21.5565 75.6331 21.1532 75.6197 20.7532 75.5997C16.7731 75.4314 12.9502 73.9987 9.83988 71.5097C6.69695 68.9385 4.54724 65.3533 3.75988 61.3697C3.19866 58.6764 3.11404 55.9056 3.50988 53.1831C4.08988 49.2164 5.37654 45.3897 7.30321 41.8764C8.77321 39.0697 10.5265 36.4197 12.5365 33.9664C14.7246 31.3003 17.3159 28.9924 20.2165 27.1264C22.5664 25.5944 25.1937 24.5378 27.9499 24.0164C31.7065 23.3164 35.3165 24.2164 39.0065 26.7697C40.9185 28.0782 42.5624 29.7403 43.8499 31.6664C46.3699 28.1431 49.5265 26.1064 53.2299 25.6264C55.1004 25.3212 57.0195 25.5912 58.7332 26.4007C60.4468 27.2102 61.8743 28.5211 62.8265 30.1597C63.8919 29.4286 65.017 28.7886 66.1899 28.2464C68.6516 27.0325 71.373 26.4396 74.1165 26.5197C78.3499 26.7064 81.5699 28.1097 83.9499 30.8131C84.8965 31.8897 85.6165 33.1464 86.0632 34.5131C87.0165 33.3564 88.0599 32.2797 89.1799 31.2897C92.1694 28.5192 95.889 26.6617 99.8999 25.9364C101.371 25.7261 102.861 25.6792 104.343 25.7964L105.28 25.8297C107.522 25.9147 109.725 26.4462 111.76 27.3931C114.342 28.5026 116.536 30.3543 118.063 32.7131C118.387 32.1797 118.737 31.6464 119.103 31.1364C121.303 28.0897 124.057 26.2931 127.29 25.7897C128.722 25.5195 130.195 25.5482 131.616 25.874C133.037 26.1998 134.375 26.8157 135.547 27.6831C136.929 28.7551 137.971 30.2053 138.547 31.8578C139.122 33.5103 139.205 35.2941 138.787 36.9931C138.663 37.5764 138.533 38.1631 138.403 38.7464C138.93 37.6264 139.467 36.4964 140.027 35.3797C141.723 31.9631 143.96 29.6297 146.86 28.2531C148.633 27.3696 150.612 26.9856 152.587 27.1424C154.561 27.2992 156.456 27.9908 158.067 29.1431C159.53 30.1431 161.32 32.0864 161.567 35.7097C161.646 37.8942 161.31 40.0739 160.577 42.1331L160.143 43.5431L160.413 42.9231C160.963 41.6697 161.52 40.4131 162.083 39.1731C163.803 35.3564 165.567 31.4597 170.283 28.5431C171.324 27.8683 172.438 27.3125 173.603 26.8864C177.257 25.6464 184.797 25.9531 187.46 30.7864C188.879 29.4898 190.483 28.4113 192.22 27.5864C194.585 26.4128 197.19 25.8035 199.83 25.8064L200.077 25.8131C202.092 25.7578 204.105 26.013 206.043 26.5697C207.29 26.9531 208.453 27.5664 209.477 28.3764C212.377 27.3464 216.067 27.4097 218.787 29.5531C219.323 29.9797 219.803 30.4797 220.21 31.0331C221.037 29.7331 221.977 28.5031 223.017 27.3664C224.183 26.0664 225.59 25.0097 227.16 24.2497C226.573 22.8557 226.138 21.403 225.86 19.9164C225.56 18.4991 225.387 17.0578 225.343 15.6097V15.4997C225.271 12.7812 226.082 10.1125 227.653 7.89306C228.621 6.50621 229.901 5.36617 231.39 4.56483C232.879 3.7635 234.536 3.3233 236.227 3.27972C238.623 3.16219 241.007 3.68207 243.137 4.78639C245.143 5.88408 246.72 7.62607 247.614 9.73092C248.508 11.8358 248.67 14.1805 248.067 16.3864Z" fill="#262626"/>
<path d="M243.35 15.2263C242.574 18.3363 240.26 20.8897 237.924 22.9597C237.094 23.6716 236.161 24.2527 235.157 24.683C233.944 25.2197 233.127 24.8797 232.397 23.783C231.492 22.3033 230.883 20.6617 230.604 18.9497C230.358 17.8072 230.217 16.6445 230.184 15.4763C230.118 13.7851 230.606 12.1187 231.574 10.7297C232.112 9.94242 232.831 9.29557 233.671 8.84323C234.511 8.39089 235.447 8.14622 236.4 8.12967C237.947 8.04634 239.494 8.37301 240.874 9.08301C243.09 10.233 243.934 12.8763 243.35 15.2263ZM235.734 30.1297C235.224 28.5063 233.73 28.2163 232.287 28.0797C229.92 27.8663 228.067 29.0563 226.57 30.6663C225.34 32.0431 224.267 33.5523 223.37 35.1663C221.497 38.4097 220.357 41.9897 219.264 45.5463C218.554 47.8563 217.93 49.8897 217.047 52.893C216.52 54.6663 215.93 57.403 214.287 58.7863C213.876 59.1653 213.339 59.379 212.78 59.3863C212.094 59.2897 211.847 58.5663 211.817 57.893C211.779 57.1502 211.776 56.406 211.81 55.663C211.997 53.383 212.477 51.1363 213.227 48.9763C214.327 45.423 215.51 41.8897 216.574 38.323C217.03 37.0897 217.054 35.7397 216.634 34.493C216.452 34.0541 216.163 33.6678 215.794 33.3697C214.314 32.203 211.627 32.3997 210.007 33.4797C209.47 33.8463 208.94 34.2297 208.377 34.6163C208.254 34.4163 208.157 34.273 208.067 34.1163C207.705 33.4219 207.21 32.8058 206.609 32.3036C206.008 31.8013 205.314 31.4228 204.567 31.1897C203.002 30.7755 201.384 30.5969 199.767 30.6597C197.863 30.6694 195.988 31.1189 194.287 31.973C191.616 33.3249 189.341 35.3476 187.687 37.843C185.854 40.343 184.22 42.9897 182.814 45.7497C181.347 48.5297 180.274 51.4997 179.637 54.5763C179.42 55.703 179.29 56.843 179.25 57.9897C179.237 58.9197 179.324 59.8463 179.5 60.7563C179.734 62.5697 180.6 64.243 181.944 65.4763C183.174 66.453 184.657 67.0497 186.22 67.1997C188.13 67.4792 190.078 67.1392 191.78 66.2297C193.627 65.2577 195.288 63.968 196.687 62.4197C197.277 61.7863 197.897 61.1797 198.57 60.4797C198.647 60.8863 198.704 61.1463 198.744 61.4063C198.984 63.3397 199.81 65.153 201.104 66.6097C203.287 68.9097 206.087 69.293 209.037 68.8597C210.659 68.6187 212.212 68.0371 213.594 67.153C214.314 66.693 216.427 64.213 217.257 64.8563C218.27 65.6463 218.374 67.1097 219.507 67.873C220.095 68.2078 220.751 68.4072 221.426 68.4568C222.101 68.5064 222.779 68.4049 223.41 68.1597C225.214 67.5174 226.903 66.59 228.414 65.413C228.742 65.1973 229.001 64.892 229.16 64.5333C229.32 64.1746 229.373 63.7777 229.314 63.3897C229.124 60.233 229.357 57.0663 230.014 53.973C230.794 50.4263 231.754 46.913 232.754 43.423C233.764 39.8663 235.424 36.4997 235.93 32.793C236.059 31.9004 235.992 30.9937 235.734 30.1297ZM203.114 41.303C202.086 45.6371 200.079 49.6783 197.247 53.1163C196.264 54.4252 195.078 55.5686 193.734 56.503C192.934 57.0363 192.16 57.2297 191.72 56.2463C191.599 55.9759 191.523 55.6878 191.494 55.393C191.32 53.703 192.154 51.9463 192.73 50.4063C193.364 48.673 194.074 46.9763 194.857 45.3163C195.99 42.9163 197.314 40.6163 199.384 38.8897C200.06 38.3797 200.814 37.9797 201.614 37.6997C202.164 37.4797 202.81 37.973 203.06 38.5797C203.364 39.4597 203.38 40.413 203.114 41.303Z" fill="#FF5A50"/>
<path d="M81.823 50.2837C80.673 53.8604 78.3796 56.1837 74.6163 56.937C72.4269 57.4354 70.1398 57.2871 68.033 56.5104C67.0899 56.1499 66.2753 55.5174 65.6924 54.693C65.1096 53.8686 64.785 52.8896 64.7596 51.8804C64.6063 49.1837 65.6863 46.857 66.9396 44.5804C67.463 43.637 68.0063 42.7004 68.4396 41.7137C68.6263 41.2137 68.6963 40.687 68.6463 40.1604C68.6201 39.9854 68.5545 39.8188 68.4544 39.6729C68.3543 39.5271 68.2224 39.4059 68.0686 39.3185C67.9148 39.2312 67.7431 39.18 67.5666 39.1687C67.3901 39.1575 67.2133 39.1866 67.0496 39.2537C66.1163 39.687 65.2496 40.2437 64.463 40.9104C61.3163 43.8004 58.7863 47.2104 56.3496 50.7104C53.7428 54.4121 51.3714 58.2742 49.2496 62.2737C48.5596 63.5904 48.0396 65.0137 47.2596 66.267C46.7148 67.1961 45.9276 67.9595 44.9823 68.4756C44.0369 68.9917 42.9691 69.2411 41.893 69.197C40.6531 69.2524 39.4184 69.0041 38.2963 68.4737C37.4296 68.0056 36.7661 67.2341 36.433 66.307C35.1463 67.0237 33.873 67.8204 32.5296 68.4537C30.4296 69.5204 28.163 70.2204 25.8296 70.517C24.2418 70.7238 22.6402 70.8052 21.0396 70.7604C18.0717 70.6532 15.2163 69.597 12.893 67.747C10.6051 65.8716 9.048 63.2528 8.49298 60.347C8.05244 58.1986 7.99264 55.9895 8.31631 53.8204C8.81835 50.424 9.92591 47.1454 11.5863 44.1404C12.9063 41.6237 14.4796 39.247 16.2796 37.0504C18.1484 34.772 20.3604 32.7983 22.8363 31.2004C24.6648 30.012 26.7073 29.1912 28.8496 28.7837C31.623 28.267 34.0163 29.2237 36.2396 30.7604C37.7896 31.8104 39.0963 33.177 40.073 34.7704C40.973 36.3937 41.213 38.3037 40.7396 40.097C40.2597 42.0571 39.555 43.9553 38.6396 45.7537C37.7996 47.6204 36.9663 49.4804 36.1063 51.337C35.9636 51.74 35.6671 52.0701 35.2817 52.255C34.8962 52.4399 34.4533 52.4646 34.0496 52.3237C32.8509 51.9443 31.7724 51.2575 30.9214 50.3317C30.0705 49.406 29.4769 48.2735 29.1996 47.047C28.9996 45.2904 29.283 43.5137 30.0263 41.907C30.7963 39.9237 31.683 37.9837 32.5363 36.0404C32.6154 35.9097 32.667 35.7643 32.688 35.613C32.709 35.4617 32.6989 35.3077 32.6583 35.1604C32.6177 35.0132 32.5476 34.8757 32.4521 34.7565C32.3566 34.6373 32.2378 34.5388 32.103 34.467C31.123 34.6937 30.2363 35.2137 29.5563 35.9537C28.353 37.1437 27.213 38.397 26.1296 39.697C23.9415 42.4296 22.0748 45.4047 20.5663 48.5637C19.6224 50.3789 19.0341 52.3577 18.833 54.3937C18.633 55.9604 18.6863 57.5437 18.983 59.0937C19.1472 60.0784 19.6448 60.9767 20.3924 61.6382C21.14 62.2996 22.0923 62.6841 23.0896 62.7271C26.9147 62.9414 30.7116 61.9593 33.953 59.917C35.1863 59.067 36.373 58.1504 37.5063 57.1737C37.7139 56.9783 37.8697 56.7343 37.9596 56.4637C39.1063 53.4037 40.1796 50.3204 41.393 47.297C42.2863 45.0504 43.3463 42.8704 44.343 40.6737C45.2796 38.5137 46.4263 36.4537 47.7696 34.517C49.283 32.3904 51.1896 30.7804 53.8463 30.437C55.9863 30.1604 57.9596 30.877 58.9796 33.297C59.8796 35.4237 59.363 37.4637 58.6696 39.5104C58.4896 40.0337 58.3163 40.557 58.0896 41.2304C59.3363 39.8704 60.3963 38.577 61.593 37.4404C63.5187 35.4876 65.7559 33.8689 68.213 32.6504C69.9732 31.7685 71.9212 31.327 73.8896 31.3637C76.3296 31.4737 78.603 32.087 80.313 34.0204C81.0563 34.8937 81.5463 35.9537 81.7263 37.087C82.1263 39.187 81.4296 41.0737 80.653 42.9604C80.0796 44.3604 79.4896 45.7537 79.0563 47.197C78.7096 48.367 79.3296 49.197 80.5696 49.5104C80.8463 49.5837 81.1263 49.6304 81.4096 49.647C81.8696 49.667 81.933 49.927 81.8263 50.2804L81.823 50.2837ZM183.3 33.3004C182.28 31.0137 177.25 30.7737 175.173 31.4804C174.352 31.7876 173.568 32.1868 172.836 32.6704C169.363 34.8204 168.13 37.577 166.5 41.1804C164.883 44.737 163.396 48.357 161.666 51.857C160.515 54.106 159.205 56.2703 157.746 58.3337C156.913 59.677 155.586 60.6337 154.053 61.0004C153.14 61.1804 152.766 60.7704 152.443 59.977C152.145 59.2465 151.964 58.4738 151.906 57.687C151.777 55.4285 152.068 53.1656 152.766 51.0137C153.793 47.567 154.9 44.147 155.94 40.707C156.49 39.2137 156.756 37.6304 156.73 36.0404C156.736 35.4851 156.614 34.9358 156.373 34.4356C156.132 33.9353 155.778 33.4977 155.34 33.157C154.426 32.4889 153.345 32.0864 152.217 31.9941C151.088 31.9017 149.957 32.1231 148.946 32.6337C146.8 33.6537 145.396 35.477 144.366 37.547C142.913 40.457 141.6 43.437 140.176 46.3604C139.2 48.3837 138.146 50.3737 137.126 52.3737C135.832 55.1208 134.274 57.7362 132.476 60.1837C132.193 60.5437 131.686 61.0504 131.363 60.9904C130.976 60.9337 130.663 60.3437 130.336 59.977C130.28 59.9094 130.24 59.8295 130.22 59.7437C129.726 57.9625 129.639 56.093 129.966 54.2737C130.3 52.217 130.71 50.167 131.183 48.1404C132.116 44.0837 133.176 40.057 134.05 35.9804C134.275 35.1799 134.257 34.3306 133.999 33.5402C133.741 32.7498 133.254 32.0538 132.6 31.5404C131.947 31.0741 131.205 30.7484 130.42 30.5837C129.635 30.4191 128.825 30.4191 128.04 30.5837C125.886 30.917 124.306 32.2237 123.04 33.9704C121.496 36.1186 120.402 38.5561 119.823 41.137C119.323 43.2704 118.996 45.4404 118.64 47.6137C118.48 48.6137 118.473 49.637 118.35 50.6537C118.314 50.9349 118.195 51.1987 118.006 51.4104C117.146 52.3104 116.273 53.187 115.373 54.047C113.673 55.687 111.723 57.047 109.596 58.0804C108.211 58.8235 106.681 59.259 105.112 59.3574C103.543 59.4558 101.971 59.2146 100.503 58.6504C99.554 58.2921 98.7114 57.699 98.0538 56.9266C97.3963 56.1542 96.9453 55.2277 96.743 54.2337C98.003 54.2337 99.2163 54.247 100.433 54.2337C103.309 54.202 106.134 53.4625 108.656 52.0804C111.035 50.8704 112.968 48.9379 114.18 46.5604C115.546 43.907 115.88 40.837 115.103 37.9537C114.758 36.5896 114.098 35.3252 113.177 34.2618C112.255 33.1985 111.098 32.3658 109.796 31.8304C108.341 31.1417 106.762 30.7507 105.153 30.6804C103.673 30.5525 102.184 30.567 100.706 30.7237C97.5928 31.3037 94.7098 32.7608 92.3963 34.9237C89.9382 37.1352 87.9067 39.7789 86.403 42.7237C84.6681 45.993 83.5954 49.5725 83.2463 53.257C83.0396 55.3637 83.213 57.4904 83.7596 59.537C84.4263 62.337 86.113 64.787 88.4863 66.417C90.953 68.017 93.8096 68.917 96.7463 69.0104C98.7953 69.0714 100.846 68.9868 102.883 68.757C104.915 68.526 106.892 67.9488 108.73 67.0504C111.755 65.6674 114.483 63.7088 116.76 61.2837C117.47 60.537 118.15 59.757 118.76 59.077C119.34 60.4937 119.863 61.9604 120.526 63.357C121.333 65.1737 122.776 66.6304 124.583 67.4504C126.333 68.217 128.176 68.7437 130.066 69.0204C130.554 69.1473 131.065 69.1519 131.554 69.0339C132.044 68.9158 132.497 68.6788 132.873 68.3437C134.12 67.1137 135.42 65.9304 136.636 64.6704C137.316 63.917 137.956 63.1304 138.556 62.3104C139.443 61.177 140.313 60.027 141.24 58.8237C141.34 59.4137 141.413 59.9104 141.523 60.4037C142.1 62.9037 143.166 65.077 145.396 66.5471C146.91 67.4771 148.563 68.1604 150.29 68.577C153.18 69.4303 156.286 69.1686 158.993 67.8437C161.977 66.3514 164.594 64.217 166.656 61.5937C168.31 59.6449 169.854 57.605 171.28 55.4837C173.437 52.1457 175.5 48.7476 177.466 45.2937C178.473 43.5404 179.453 41.7704 180.423 39.997C181.22 38.5504 183.346 35.997 183.473 34.3737C183.507 34.007 183.448 33.6376 183.3 33.3004ZM97.6063 45.967C98.273 44.1437 99.2796 42.467 100.57 41.0204C101.346 40.047 102.42 39.3537 103.626 39.0537C104.027 38.9878 104.438 39.0244 104.82 39.16C105.203 39.2956 105.545 39.5258 105.815 39.8292C106.085 40.1326 106.274 40.4994 106.364 40.8953C106.454 41.2913 106.442 41.7035 106.33 42.0937C105.406 46.0237 102.8 48.247 99.0096 49.217C98.183 49.3562 97.3476 49.4364 96.5096 49.457C96.9096 48.1637 97.2197 47.0504 97.6096 45.9637L97.6063 45.967Z" fill="white"/>
</g>
<defs>
<clipPath id="clip0_5360_2890">
<rect width="253.333" height="80" fill="white"/>
</clipPath>
</defs>
</svg>
