<svg width="434" height="80" viewBox="0 0 434 80" fill="none" xmlns="http://www.w3.org/2000/svg">
<g clip-path="url(#clip0_5360_2896)">
<path d="M40.1274 79.9745C62.2756 79.9745 80.2303 62.0779 80.2303 40.0013C80.2303 17.9247 62.2756 0.0280762 40.1274 0.0280762C17.9792 0.0280762 0.0244751 17.9247 0.0244751 40.0013C0.0244751 62.0779 17.9792 79.9745 40.1274 79.9745Z" fill="#009688" fill-opacity="0.980392"/>
<path d="M37.3603 18.1279L29.3431 35.9335L25.6797 44.069L17.6618 61.8745L54.5758 35.9335H37.2562L62.593 18.1279H37.3603Z" fill="white" fill-opacity="0.980392"/>
<path d="M111.893 74.2682V5.2366H153.531V13.5045H121.556V34.3235H149.945V42.4918H121.556V74.2682H111.893ZM177.239 67.5942C179.431 67.5942 181.356 67.561 183.017 67.4946C184.743 67.3617 186.171 67.1625 187.3 66.8969V51.4569C186.636 51.1249 185.54 50.8592 184.013 50.66C182.552 50.3944 180.759 50.2616 178.634 50.2616C177.239 50.2616 175.745 50.3612 174.151 50.5604C172.624 50.7596 171.196 51.1913 169.868 51.8554C168.606 52.453 167.543 53.3163 166.68 54.4453C165.817 55.5078 165.385 56.9356 165.385 58.7286C165.385 62.0491 166.448 64.3734 168.573 65.7015C170.698 66.9633 173.587 67.5942 177.239 67.5942ZM176.442 21.1746C180.161 21.1746 183.282 21.6727 185.806 22.6688C188.396 23.5985 190.454 24.9599 191.982 26.7529C193.576 28.4796 194.705 30.5714 195.369 33.0286C196.033 35.4193 196.365 38.0756 196.365 40.9976V73.3717C195.568 73.5045 194.439 73.7038 192.978 73.9694C191.583 74.1686 189.99 74.3678 188.197 74.5671C186.403 74.7663 184.444 74.9323 182.319 75.0651C180.261 75.2644 178.202 75.364 176.143 75.364C173.221 75.364 170.532 75.0651 168.075 74.4675C165.618 73.8698 163.493 72.9401 161.699 71.6783C159.906 70.3501 158.512 68.6235 157.516 66.4984C156.52 64.3734 156.022 61.8166 156.022 58.8283C156.022 55.9727 156.586 53.5156 157.715 51.4569C158.91 49.3983 160.504 47.738 162.496 46.4763C164.489 45.2145 166.813 44.2848 169.469 43.6871C172.126 43.0894 174.915 42.7906 177.837 42.7906C178.766 42.7906 179.729 42.857 180.726 42.9898C181.722 43.0562 182.651 43.1891 183.515 43.3883C184.444 43.5211 185.241 43.6539 185.905 43.7867C186.569 43.9195 187.034 44.0192 187.3 44.0856V41.4956C187.3 39.9682 187.134 38.474 186.802 37.0131C186.47 35.4857 185.872 34.1575 185.009 33.0286C184.146 31.8332 182.95 30.9035 181.423 30.2394C179.962 29.5089 178.036 29.1437 175.645 29.1437C172.591 29.1437 169.901 29.3761 167.577 29.8409C165.319 30.2394 163.625 30.671 162.496 31.1359L161.401 23.4657C162.596 22.9345 164.588 22.4364 167.377 21.9715C170.167 21.4403 173.188 21.1746 176.442 21.1746ZM223.758 67.5942C227.543 67.5942 230.333 67.0961 232.126 66.1C233.985 65.1039 234.915 63.5101 234.915 61.3186C234.915 59.0607 234.018 57.2677 232.225 55.9395C230.432 54.6113 227.477 53.1171 223.36 51.4569C221.367 50.66 219.442 49.8631 217.582 49.0662C215.789 48.2029 214.229 47.2068 212.9 46.0778C211.572 44.9489 210.51 43.5875 209.713 41.9937C208.916 40.3999 208.517 38.4408 208.517 36.1165C208.517 31.5344 210.211 27.9151 213.598 25.2588C216.985 22.536 221.6 21.1746 227.444 21.1746C228.905 21.1746 230.366 21.2742 231.827 21.4735C233.288 21.6063 234.649 21.8055 235.911 22.0712C237.173 22.2704 238.268 22.5028 239.198 22.7684C240.194 23.0341 240.958 23.2665 241.489 23.4657L239.796 31.4347C238.8 30.9035 237.239 30.3722 235.114 29.8409C232.989 29.2433 230.432 28.9444 227.444 28.9444C224.854 28.9444 222.596 29.4757 220.67 30.5382C218.744 31.5344 217.781 33.1282 217.781 35.3196C217.781 36.4486 217.981 37.4447 218.379 38.308C218.844 39.1713 219.508 39.9682 220.371 40.6987C221.301 41.3628 222.43 41.9937 223.758 42.5914C225.086 43.1891 226.68 43.8199 228.54 44.484C230.997 45.4137 233.188 46.3435 235.114 47.2732C237.04 48.1365 238.667 49.1658 239.995 50.3612C241.39 51.5565 242.452 53.0175 243.183 54.7441C243.913 56.4043 244.278 58.463 244.278 60.9201C244.278 65.7015 242.485 69.3208 238.899 71.7779C235.38 74.235 230.333 75.4636 223.758 75.4636C219.176 75.4636 215.59 75.0651 213 74.2682C210.41 73.5377 208.65 72.9733 207.721 72.5748L209.414 64.6058C210.476 65.0042 212.17 65.6019 214.494 66.3988C216.819 67.1957 219.906 67.5942 223.758 67.5942ZM264.799 22.4696H284.422V30.2394H264.799V54.1465C264.799 56.7364 264.998 58.8947 265.396 60.6213C265.795 62.2815 266.392 63.6097 267.189 64.6058C267.986 65.5355 268.982 66.1996 270.178 66.598C271.373 66.9965 272.768 67.1957 274.361 67.1957C277.151 67.1957 279.375 66.8969 281.035 66.2992C282.762 65.6351 283.957 65.1703 284.621 64.9046L286.415 72.5748C285.485 73.0397 283.858 73.6041 281.533 74.2682C279.209 74.9987 276.553 75.364 273.564 75.364C270.045 75.364 267.123 74.9323 264.799 74.069C262.541 73.1393 260.714 71.7779 259.32 69.9849C257.925 68.1919 256.929 66.0004 256.331 63.4104C255.8 60.7541 255.535 57.6993 255.535 54.2461V8.02575L264.799 6.43195V22.4696ZM342.895 74.2682C341.766 71.2798 340.703 68.3579 339.707 65.5023C338.711 62.5803 337.682 59.6252 336.619 56.6368H305.341L299.065 74.2682H289.004C291.661 66.9633 294.151 60.2228 296.475 54.0468C298.8 47.8044 301.057 41.8941 303.249 36.3158C305.507 30.7375 307.732 25.4248 309.923 20.3777C312.114 15.2643 314.406 10.2172 316.796 5.2366H325.662C328.053 10.2172 330.344 15.2643 332.535 20.3777C334.727 25.4248 336.918 30.7375 339.11 36.3158C341.367 41.8941 343.659 47.8044 345.983 54.0468C348.307 60.2228 350.797 66.9633 353.454 74.2682H342.895ZM333.83 48.6678C331.705 42.8902 329.58 37.3119 327.455 31.9328C325.396 26.4873 323.238 21.2742 320.98 16.2936C318.656 21.2742 316.431 26.4873 314.306 31.9328C312.247 37.3119 310.189 42.8902 308.13 48.6678H333.83ZM381.146 4.53931C390.842 4.53931 398.279 6.39875 403.459 10.1176C408.705 13.7701 411.329 19.2488 411.329 26.5537C411.329 30.5382 410.598 33.9583 409.137 36.8138C407.743 39.603 405.684 41.8941 402.961 43.6871C400.305 45.4137 397.051 46.6755 393.199 47.4724C389.347 48.2693 384.998 48.6678 380.15 48.6678H372.48V74.2682H362.817V6.23272C365.54 5.56864 368.562 5.13698 371.882 4.93776C375.269 4.67212 378.357 4.53931 381.146 4.53931ZM381.943 13.0064C377.826 13.0064 374.671 13.106 372.48 13.3052V40.3999H379.751C383.072 40.3999 386.06 40.2007 388.716 39.8022C391.373 39.3374 393.598 38.6069 395.391 37.6107C397.25 36.5482 398.678 35.1204 399.674 33.3274C400.67 31.5344 401.168 29.2433 401.168 26.4541C401.168 23.7978 400.637 21.6063 399.574 19.8797C398.578 18.153 397.184 16.7917 395.391 15.7955C393.664 14.733 391.638 14.0025 389.314 13.6041C386.99 13.2056 384.533 13.0064 381.943 13.0064ZM423.382 5.2366H433.044V74.2682H423.382V5.2366Z" fill="#009688"/>
</g>
<defs>
<clipPath id="clip0_5360_2896">
<rect width="433.052" height="80" fill="white"/>
</clipPath>
</defs>
</svg>
