<svg width="362" height="80" viewBox="0 0 362 80" fill="none" xmlns="http://www.w3.org/2000/svg">
<path d="M102.265 54.5874V25.7778H109.888V36.5038H118.487V25.7778H126.111V54.5874H118.487V43.1523H109.888V54.5874H102.265ZM138.593 55.1192C136.17 55.1192 134.412 54.3067 133.319 52.6816C132.226 51.0268 131.679 48.8255 131.679 46.0774V32.4264H139.303V45.1025C139.303 46.5209 139.48 47.4661 139.834 47.9389C140.219 48.4117 140.78 48.6481 141.519 48.6481C142.228 48.6481 142.819 48.5004 143.292 48.205C143.765 47.9096 144.237 47.4071 144.71 46.6979V32.4264H152.334V54.5874H146.128L145.596 51.6623H145.419C144.533 52.7259 143.543 53.5682 142.449 54.1887C141.386 54.8092 140.101 55.1192 138.593 55.1192ZM165.547 63.718C163.863 63.718 162.311 63.5259 160.893 63.1418C159.475 62.787 158.337 62.2109 157.48 61.413C156.653 60.6155 156.239 59.5515 156.239 58.2217C156.239 56.4787 157.273 55.0602 159.342 53.9669V53.7895C158.775 53.3707 158.281 52.8615 157.879 52.2828C157.495 51.6623 157.303 50.8937 157.303 49.9778C157.303 49.2096 157.525 48.4561 157.968 47.7176C158.441 46.9787 159.047 46.3435 159.785 45.8117V45.6343C158.987 45.1025 158.278 44.349 157.658 43.3736C157.067 42.369 156.771 41.2314 156.771 39.9611C156.771 38.1289 157.214 36.6222 158.101 35.4402C159.017 34.2285 160.199 33.3423 161.647 32.7808C163.095 32.19 164.631 31.8942 166.256 31.8942C167.556 31.8942 168.738 32.0716 169.802 32.4264H178.046V37.9222H174.855C174.943 38.1883 175.017 38.528 175.076 38.9414C175.165 39.3552 175.209 39.7837 175.209 40.2268C175.209 41.9703 174.811 43.3887 174.013 44.482C173.215 45.5456 172.136 46.3289 170.777 46.831C169.418 47.3335 167.911 47.5845 166.256 47.5845C165.518 47.5845 164.69 47.4812 163.774 47.2741C163.419 47.5992 163.242 48.0276 163.242 48.5594C163.242 49.0322 163.479 49.372 163.952 49.5791C164.454 49.7858 165.252 49.8891 166.345 49.8891H169.669C172.447 49.8891 174.589 50.3473 176.096 51.2632C177.632 52.1498 178.4 53.6121 178.4 55.651C178.4 57.2469 177.869 58.6502 176.805 59.8619C175.771 61.0732 174.293 62.0188 172.372 62.6983C170.452 63.3782 168.177 63.718 165.547 63.718ZM166.256 43.0636C166.965 43.0636 167.541 42.8126 167.985 42.3101C168.428 41.808 168.649 41.0247 168.649 39.9611C168.649 38.9268 168.428 38.1732 167.985 37.7004C167.541 37.1983 166.965 36.9473 166.256 36.9473C165.547 36.9473 164.971 37.1983 164.528 37.7004C164.084 38.1732 163.863 38.9268 163.863 39.9611C163.863 41.0247 164.084 41.808 164.528 42.3101C164.971 42.8126 165.547 43.0636 166.256 43.0636ZM166.788 59.0197C168.029 59.0197 169.063 58.8276 169.89 58.4435C170.718 58.0887 171.131 57.6012 171.131 56.9807C171.131 56.3899 170.866 56.0205 170.334 55.8728C169.831 55.7251 169.108 55.651 168.162 55.651H166.434C165.547 55.651 164.867 55.6217 164.395 55.5623C163.952 55.533 163.567 55.474 163.242 55.3853C162.711 55.9171 162.444 56.4489 162.444 56.9807C162.444 57.6899 162.843 58.2071 163.641 58.5322C164.469 58.8573 165.518 59.0197 166.788 59.0197ZM189.743 63.718C188.058 63.718 186.507 63.5259 185.089 63.1418C183.67 62.787 182.533 62.2109 181.676 61.413C180.849 60.6155 180.435 59.5515 180.435 58.2217C180.435 56.4787 181.469 55.0602 183.537 53.9669V53.7895C182.971 53.3707 182.477 52.8615 182.075 52.2828C181.69 51.6623 181.498 50.8937 181.498 49.9778C181.498 49.2096 181.72 48.4561 182.163 47.7176C182.636 46.9787 183.242 46.3435 183.981 45.8117V45.6343C183.183 45.1025 182.474 44.349 181.853 43.3736C181.262 42.369 180.967 41.2314 180.967 39.9611C180.967 38.1289 181.41 36.6222 182.296 35.4402C183.212 34.2285 184.394 33.3423 185.842 32.7808C187.29 32.19 188.826 31.8942 190.451 31.8942C191.752 31.8942 192.934 32.0716 193.998 32.4264H202.241V37.9222H199.05C199.139 38.1883 199.213 38.528 199.272 38.9414C199.36 39.3552 199.405 39.7837 199.405 40.2268C199.405 41.9703 199.006 43.3887 198.208 44.482C197.41 45.5456 196.332 46.3289 194.972 46.831C193.613 47.3335 192.106 47.5845 190.451 47.5845C189.713 47.5845 188.886 47.4812 187.969 47.2741C187.615 47.5992 187.438 48.0276 187.438 48.5594C187.438 49.0322 187.674 49.372 188.147 49.5791C188.649 49.7858 189.447 49.8891 190.54 49.8891H193.864C196.642 49.8891 198.784 50.3473 200.291 51.2632C201.828 52.1498 202.596 53.6121 202.596 55.651C202.596 57.2469 202.064 58.6502 201 59.8619C199.966 61.0732 198.489 62.0188 196.568 62.6983C194.648 63.3782 192.372 63.718 189.743 63.718ZM190.451 43.0636C191.161 43.0636 191.737 42.8126 192.18 42.3101C192.623 41.808 192.845 41.0247 192.845 39.9611C192.845 38.9268 192.623 38.1732 192.18 37.7004C191.737 37.1983 191.161 36.9473 190.451 36.9473C189.743 36.9473 189.166 37.1983 188.723 37.7004C188.28 38.1732 188.058 38.9268 188.058 39.9611C188.058 41.0247 188.28 41.808 188.723 42.3101C189.166 42.8126 189.743 43.0636 190.451 43.0636ZM190.984 59.0197C192.225 59.0197 193.259 58.8276 194.086 58.4435C194.913 58.0887 195.327 57.6012 195.327 56.9807C195.327 56.3899 195.061 56.0205 194.529 55.8728C194.027 55.7251 193.303 55.651 192.357 55.651H190.629C189.743 55.651 189.063 55.6217 188.59 55.5623C188.147 55.533 187.763 55.474 187.438 55.3853C186.906 55.9171 186.64 56.4489 186.64 56.9807C186.64 57.6899 187.039 58.2071 187.837 58.5322C188.664 58.8573 189.713 59.0197 190.984 59.0197ZM205.872 54.5874V32.4264H213.495V54.5874H205.872ZM209.683 29.6783C208.442 29.6783 207.437 29.3385 206.669 28.659C205.901 27.9498 205.517 27.0188 205.517 25.8665C205.517 24.7142 205.901 23.7979 206.669 23.1184C207.437 22.4092 208.442 22.0548 209.683 22.0548C210.924 22.0548 211.929 22.4092 212.697 23.1184C213.465 23.7979 213.849 24.7142 213.849 25.8665C213.849 27.0188 213.465 27.9498 212.697 28.659C211.929 29.3385 210.924 29.6783 209.683 29.6783ZM218.64 54.5874V32.4264H224.845L225.377 35.0854H225.554C226.441 34.2285 227.446 33.49 228.568 32.8695C229.72 32.2193 231.05 31.8942 232.557 31.8942C235.01 31.8942 236.768 32.7218 237.832 34.3766C238.925 36.0017 239.472 38.1883 239.472 40.936V54.5874H231.848V41.9113C231.848 40.4929 231.671 39.5473 231.316 39.0745C230.961 38.6017 230.4 38.3653 229.632 38.3653C228.923 38.3653 228.332 38.513 227.859 38.8088C227.386 39.1042 226.854 39.518 226.264 40.0498V54.5874H218.64ZM252.504 63.718C250.82 63.718 249.268 63.5259 247.85 63.1418C246.432 62.787 245.294 62.2109 244.437 61.413C243.61 60.6155 243.196 59.5515 243.196 58.2217C243.196 56.4787 244.23 55.0602 246.299 53.9669V53.7895C245.732 53.3707 245.238 52.8615 244.836 52.2828C244.452 51.6623 244.26 50.8937 244.26 49.9778C244.26 49.2096 244.482 48.4561 244.925 47.7176C245.397 46.9787 246.003 46.3435 246.742 45.8117V45.6343C245.944 45.1025 245.235 44.349 244.614 43.3736C244.023 42.369 243.728 41.2314 243.728 39.9611C243.728 38.1289 244.171 36.6222 245.058 35.4402C245.974 34.2285 247.156 33.3423 248.603 32.7808C250.051 32.19 251.588 31.8942 253.213 31.8942C254.513 31.8942 255.695 32.0716 256.759 32.4264H265.002V37.9222H261.811C261.9 38.1883 261.974 38.528 262.033 38.9414C262.122 39.3552 262.166 39.7837 262.166 40.2268C262.166 41.9703 261.767 43.3887 260.969 44.482C260.171 45.5456 259.093 46.3289 257.734 46.831C256.374 47.3335 254.868 47.5845 253.213 47.5845C252.474 47.5845 251.647 47.4812 250.731 47.2741C250.376 47.5992 250.199 48.0276 250.199 48.5594C250.199 49.0322 250.436 49.372 250.908 49.5791C251.41 49.7858 252.208 49.8891 253.302 49.8891H256.626C259.403 49.8891 261.546 50.3473 263.053 51.2632C264.589 52.1498 265.357 53.6121 265.357 55.651C265.357 57.2469 264.825 58.6502 263.761 59.8619C262.728 61.0732 261.25 62.0188 259.329 62.6983C257.409 63.3782 255.133 63.718 252.504 63.718ZM253.213 43.0636C253.922 43.0636 254.498 42.8126 254.941 42.3101C255.385 41.808 255.606 41.0247 255.606 39.9611C255.606 38.9268 255.385 38.1732 254.941 37.7004C254.498 37.1983 253.922 36.9473 253.213 36.9473C252.504 36.9473 251.928 37.1983 251.484 37.7004C251.041 38.1732 250.82 38.9268 250.82 39.9611C250.82 41.0247 251.041 41.808 251.484 42.3101C251.928 42.8126 252.504 43.0636 253.213 43.0636ZM253.745 59.0197C254.986 59.0197 256.02 58.8276 256.847 58.4435C257.675 58.0887 258.088 57.6012 258.088 56.9807C258.088 56.3899 257.823 56.0205 257.291 55.8728C256.788 55.7251 256.064 55.651 255.119 55.651H253.39C252.504 55.651 251.824 55.6217 251.351 55.5623C250.908 55.533 250.524 55.474 250.199 55.3853C249.667 55.9171 249.401 56.4489 249.401 56.9807C249.401 57.6899 249.8 58.2071 250.598 58.5322C251.425 58.8573 252.474 59.0197 253.745 59.0197ZM278.126 54.5874V25.7778H296.919V32.1603H285.75V37.6561H295.323V44.0385H285.75V54.5874H278.126ZM305.256 55.1192C303.867 55.1192 302.67 54.8092 301.666 54.1887C300.707 53.5561 299.927 52.6858 299.405 51.6623C298.873 50.628 298.607 49.505 298.607 48.2937C298.607 45.9887 299.553 44.1866 301.444 42.8862C303.335 41.5565 306.408 40.6703 310.663 40.2268C310.486 38.6904 309.451 37.9222 307.561 37.9222C306.763 37.9222 305.92 38.0845 305.034 38.4096C304.148 38.705 303.128 39.1632 301.976 39.7837L299.317 34.8197C300.883 33.8741 302.463 33.1502 304.059 32.6477C305.681 32.1461 307.369 31.8921 309.067 31.8942C311.963 31.8942 314.224 32.7218 315.849 34.3766C317.474 36.0017 318.286 38.6314 318.286 42.2657V54.5874H312.081L311.55 52.4598H311.372C310.486 53.2577 309.54 53.9079 308.535 54.41C307.561 54.8828 306.467 55.1192 305.256 55.1192ZM307.915 49.2686C308.535 49.2686 309.053 49.1356 309.466 48.8699C309.88 48.5745 310.279 48.205 310.663 47.7619V44.7477C308.861 45.0138 307.605 45.4126 306.896 45.9444C306.216 46.4766 305.876 47.0527 305.876 47.6732C305.876 48.7368 306.556 49.2686 307.915 49.2686ZM333.273 55.1192C331.176 55.1192 329.284 54.6611 327.6 53.7452C325.916 52.8293 324.571 51.5142 323.567 49.8004C322.591 48.0573 322.104 45.9594 322.104 43.5067C322.104 41.0544 322.651 38.9711 323.744 37.2573C324.867 35.5138 326.33 34.1845 328.132 33.2682C329.934 32.3523 331.884 31.8942 333.982 31.8942C335.312 31.8942 336.509 32.1013 337.573 32.5147C338.666 32.9285 339.626 33.49 340.453 34.1992L336.908 39.0745C336.435 38.6611 336.006 38.3804 335.622 38.2327C335.241 38.085 334.835 38.0101 334.426 38.0109C333.007 38.0109 331.899 38.513 331.102 39.518C330.304 40.4929 329.905 41.8226 329.905 43.5067C329.905 45.1912 330.319 46.5356 331.146 47.5402C331.973 48.5151 332.978 49.0029 334.16 49.0029C334.78 49.0029 335.386 48.8699 335.977 48.6038C336.583 48.3172 337.161 47.9757 337.706 47.5845L340.631 52.5485C339.537 53.5238 338.326 54.2033 336.996 54.5874C335.667 54.9418 334.426 55.1192 333.273 55.1192ZM353.104 55.1192C350.946 55.1192 348.996 54.6611 347.253 53.7452C345.539 52.8293 344.18 51.5142 343.175 49.8004C342.171 48.0573 341.668 45.9594 341.668 43.5067C341.668 41.1134 342.171 39.0598 343.175 37.346C344.209 35.6025 345.539 34.2582 347.164 33.3126C348.789 32.367 350.503 31.8942 352.306 31.8942C354.492 31.8942 356.295 32.382 357.713 33.3569C359.161 34.3025 360.224 35.5879 360.904 37.213C361.613 38.8381 361.968 40.6406 361.968 42.6205C361.968 43.2703 361.924 43.9059 361.835 44.5264C361.776 45.1172 361.716 45.5456 361.658 45.8117H349.026C349.38 47.1414 350.016 48.072 350.932 48.6038C351.847 49.1063 352.926 49.3573 354.167 49.3573C355.586 49.3573 357.092 48.9142 358.688 48.0276L361.17 52.5485C359.988 53.3757 358.658 54.0113 357.181 54.4544C355.704 54.8975 354.345 55.1192 353.104 55.1192ZM348.937 40.8473H355.497C355.497 39.9904 355.275 39.2519 354.832 38.6314C354.418 37.9812 353.635 37.6561 352.483 37.6561C351.655 37.6561 350.917 37.9075 350.267 38.4096C349.617 38.9121 349.173 39.7247 348.937 40.8473Z" fill="white"/>
<path d="M85.879 58.8095C85.6543 57.9614 85.2903 57.1568 84.802 56.428C84.9066 56.0438 84.9861 55.6539 85.0396 55.2602C85.3861 52.7598 84.5196 50.4706 82.8857 48.6991C82.0007 47.7317 81.0522 47.0932 80.0476 46.7012C80.707 43.8798 81.0409 40.9924 81.0426 38.0949C81.0426 36.7719 80.9677 35.4757 80.8422 34.1987C80.7765 33.561 80.6974 32.9246 80.6049 32.2903C80.3171 30.4188 79.8903 28.5713 79.3279 26.7631C78.9593 25.5751 78.533 24.4058 78.0505 23.2594C77.3271 21.5616 76.4823 19.918 75.5229 18.3414C74.8932 17.2927 74.2079 16.2785 73.4694 15.3033C73.1075 14.8109 72.7305 14.33 72.338 13.8615C71.1757 12.4487 69.9129 11.122 68.5585 9.89204C68.1091 9.47856 67.6468 9.07936 67.1719 8.69497C66.7045 8.30509 66.2267 7.92769 65.7393 7.56317C64.7581 6.83296 63.7439 6.14786 62.7004 5.51003C56.9343 2.00795 50.1723 0 42.9452 0C21.903 0 4.84818 17.0552 4.84818 38.0966C4.84763 41.0305 5.18755 43.9543 5.86115 46.8096C4.95738 47.202 4.09086 47.8133 3.28793 48.6983C1.65446 50.4685 0.787514 52.7497 1.13438 55.2497C1.18668 55.6472 1.26617 56.0405 1.37161 56.4271C0.883623 57.1564 0.519732 57.9614 0.294628 58.8095C-0.207464 60.7179 -0.0421915 62.4388 0.595883 63.9463C-0.0974215 65.9175 0.0757985 68.0162 0.979145 69.8409C1.63605 71.1735 2.57621 72.2041 3.73479 73.1258C5.11261 74.2208 6.8373 75.1518 8.91805 76.0442C11.4001 77.1028 14.4293 78.0974 15.8072 78.4622C19.3661 79.384 22.7787 79.9681 26.2376 79.9961C31.1648 80.0421 35.4083 78.8831 38.4468 75.9179C39.9393 76.1007 41.4414 76.1924 42.9452 76.1919C44.5339 76.1886 46.1209 76.0882 47.6974 75.8924C50.7284 78.8765 54.9882 80.0459 59.9338 79.9986C63.392 79.9714 66.8045 79.3873 70.3543 78.4643C71.7413 78.0995 74.7698 77.1049 77.2531 76.0467C79.3338 75.1522 81.0581 74.2216 82.4455 73.1279C83.5953 72.2066 84.5346 71.1756 85.1919 69.843C86.1045 68.0183 86.2689 65.9196 85.5844 63.9484C86.2166 62.4409 86.3807 60.7162 85.879 58.8095ZM82.348 63.8187C83.0472 65.1455 83.092 66.6447 82.4748 68.0409C81.5392 70.1572 79.2154 71.8237 74.702 73.6133C71.8957 74.7267 69.3254 75.438 69.3029 75.4447C65.5907 76.4074 62.2334 76.8961 59.3271 76.8961C54.5146 76.8961 50.9338 75.5685 48.6627 72.9459C44.8221 73.5999 40.9004 73.6221 37.0527 73.0116C34.7791 75.5907 31.218 76.8961 26.446 76.8961C23.5394 76.8961 20.1825 76.4074 16.4703 75.4447C16.4473 75.438 13.8787 74.7267 11.0712 73.6133C6.5578 71.8237 4.23353 70.1581 3.29839 68.0409C2.68124 66.6447 2.726 65.1455 3.42517 63.8187C3.49002 63.6957 3.55906 63.5752 3.63312 63.4593C3.21404 62.83 2.93299 62.1187 2.80835 61.3731C2.68375 60.6275 2.71843 59.8635 2.9101 59.1321C3.18793 58.0769 3.76199 57.1991 4.54106 56.5685C4.16592 55.9518 3.91968 55.2656 3.81722 54.551C3.59295 52.997 4.10843 51.4451 5.2691 50.1803C6.17244 49.1957 7.44985 48.6539 8.86449 48.6539H8.90215C7.83575 45.2359 7.29499 41.6757 7.29838 38.0953C7.29838 18.5673 23.1297 2.73556 42.6598 2.73556C62.1903 2.73556 78.0213 18.5661 78.0213 38.0953C78.0238 41.6853 77.4794 45.2547 76.4066 48.6807C76.5773 48.6639 76.7447 48.6552 76.9087 48.6552C78.3229 48.6552 79.6007 49.1966 80.5041 50.1811C81.6639 51.4451 82.1807 52.9982 81.956 54.5518C81.8535 55.2664 81.6074 55.9531 81.2321 56.5698C82.0112 57.1999 82.5853 58.0777 82.8631 59.1334C83.0543 59.8648 83.089 60.6284 82.9643 61.3744C82.8397 62.12 82.5589 62.8309 82.1401 63.4606C82.2141 63.5752 82.284 63.6957 82.348 63.8187Z" fill="white"/>
<path d="M82.1399 63.4607C82.5588 62.831 82.8395 62.1201 82.9642 61.3745C83.0889 60.6285 83.0541 59.8649 82.8629 59.1335C82.5851 58.0783 82.0111 57.2004 81.232 56.5699C81.6069 55.9532 81.8533 55.267 81.9558 54.5523C82.1801 52.9984 81.6646 51.4465 80.5039 50.1816C79.6006 49.1971 78.3228 48.6553 76.9085 48.6553C76.7441 48.6553 76.5772 48.6636 76.4065 48.6808C77.478 45.2549 78.0215 41.6854 78.0182 38.0959C78.0182 18.5682 62.1868 2.73608 42.6584 2.73608C23.13 2.73608 7.29694 18.5666 7.29694 38.0959C7.29355 41.6762 7.83431 45.2364 8.90071 48.6544H8.86305C7.44882 48.6544 6.17142 49.1963 5.26807 50.1808C4.10824 51.4448 3.59193 52.9975 3.81619 54.5515C3.91858 55.2661 4.16481 55.9523 4.54004 56.5691C3.76096 57.1996 3.18691 58.0774 2.9095 59.1331C2.71795 59.8645 2.68339 60.6285 2.80816 61.3745C2.93293 62.1201 3.21414 62.8314 3.63335 63.4607C3.55845 63.5766 3.48983 63.6971 3.4254 63.8201C2.72666 65.1469 2.68147 66.646 3.29862 68.0423C4.23377 70.1582 6.55803 71.8255 11.0714 73.6146C13.8777 74.728 16.448 75.4393 16.4706 75.446C20.1827 76.4088 23.5396 76.8979 26.4459 76.8979C31.2182 76.8979 34.7789 75.5925 37.053 73.013C40.9007 73.6234 44.8224 73.6013 48.663 72.9473C50.9337 75.5699 54.5149 76.8979 59.3274 76.8979C62.2337 76.8979 65.591 76.4088 69.3031 75.446C69.3257 75.4393 71.8948 74.728 74.7023 73.6146C79.2157 71.8255 81.5399 70.1582 82.4751 68.0423C83.0922 66.646 83.0475 65.1469 82.3483 63.8201C82.2843 63.6958 82.214 63.5757 82.1399 63.4607ZM35.4258 68.9753C35.23 69.318 35.0203 69.6523 34.7969 69.9774C34.209 70.8381 33.4358 71.4954 32.5387 71.9845C30.8228 72.9197 28.6517 73.2469 26.4454 73.2469C22.9609 73.2469 19.3886 72.4314 17.386 71.9117C17.2877 71.8862 5.11243 68.4473 6.65385 65.5201C6.91326 65.028 7.34046 64.8314 7.87769 64.8314C10.048 64.8314 13.9999 68.0632 15.6986 68.0632C16.0777 68.0632 16.3455 67.9013 16.4547 67.5075C17.1785 64.9113 5.45343 63.8201 6.44088 60.0611C6.61535 59.3958 7.08774 59.126 7.75259 59.126C10.6216 59.1255 17.0618 64.1716 18.4086 64.1716C18.512 64.1716 18.586 64.1414 18.6262 64.0778L18.6438 64.049C19.2756 63.005 18.9132 62.246 14.5819 59.5933L14.166 59.3402C9.40029 56.4553 6.05468 54.7197 7.95761 52.6486C8.17644 52.4092 8.48648 52.3034 8.86347 52.3034C9.31074 52.3034 9.85175 52.4532 10.4476 52.7038C12.9647 53.7653 16.4534 56.6603 17.9107 57.923C18.3404 58.2971 18.5936 58.5255 18.5936 58.5255C18.5936 58.5255 20.4388 60.4444 21.5547 60.4444C21.8116 60.4444 22.0291 60.3435 22.1768 60.0929C22.9685 58.759 14.8283 52.5908 14.3693 50.0461C14.0584 48.3214 14.5877 47.4482 15.5672 47.4482C16.0325 47.4482 16.6007 47.6461 17.2279 48.044C19.1735 49.2791 22.93 55.7343 24.3053 58.2452C24.7664 59.0871 25.5534 59.4427 26.2626 59.4427C27.6697 59.4427 28.7697 58.044 26.3915 56.2666C22.817 53.5917 24.0714 49.2201 25.7773 48.9511C25.8501 48.9398 25.9237 48.9339 25.9969 48.9335C27.5484 48.9335 28.2329 51.6071 28.2329 51.6071C28.2329 51.6071 30.2383 56.644 33.6839 60.0866C36.8107 63.2117 37.2471 65.7766 35.4258 68.9753ZM46.5676 69.5653L46.3889 69.5866L46.0839 69.6218C45.9237 69.6381 45.7634 69.654 45.6023 69.669L45.445 69.6833L45.3019 69.6954L45.0981 69.7117C45.0232 69.7172 44.9483 69.723 44.8735 69.7276L44.6492 69.7427L44.5998 69.7456L44.4232 69.7561L44.3484 69.7598L44.1391 69.7703L43.896 69.7803L43.6751 69.7879L43.5278 69.7921H43.4534C43.4073 69.7921 43.3617 69.7946 43.3157 69.795H43.2425C43.1965 69.795 43.1509 69.795 43.1048 69.7975L42.9178 69.7996H42.6559C42.4504 69.7996 42.2458 69.7975 42.0412 69.7937L41.8756 69.79C41.8287 69.79 41.7814 69.7875 41.7345 69.7862L41.5592 69.7808L41.3408 69.7724L41.1446 69.764L41.0935 69.7619L40.9065 69.7519C40.8546 69.749 40.8027 69.7465 40.7513 69.7431L40.6304 69.736C40.4785 69.7264 40.3266 69.7155 40.1747 69.7038L40.0157 69.6912L39.8149 69.6741L39.5802 69.6523C39.4492 69.6402 39.3182 69.6268 39.1873 69.6121H39.181C41.0931 65.3465 40.1262 61.3628 36.2622 57.5017C33.7283 54.9712 32.0421 51.2335 31.6927 50.413C30.9848 47.9841 29.1107 45.2841 25.999 45.2841C25.7358 45.2846 25.4735 45.3055 25.2137 45.3465C23.8501 45.5607 22.6584 46.3456 21.8082 47.5264C20.8898 46.3837 19.9965 45.4754 19.189 44.962C17.9714 44.1904 16.7568 43.7988 15.5727 43.7988C14.0957 43.7988 12.7748 44.4055 11.8543 45.5059L11.8312 45.5339L11.7794 45.3159L11.7773 45.3067C11.6022 44.5578 11.4551 43.8021 11.3363 43.0423C11.3363 43.0369 11.3363 43.0318 11.3338 43.0268L11.3078 42.8549C11.2938 42.762 11.2801 42.6687 11.2668 42.5758C11.2559 42.4984 11.2451 42.421 11.235 42.344C11.225 42.267 11.2141 42.1896 11.2049 42.1122C11.1948 42.0344 11.1856 41.957 11.1764 41.8795C11.1676 41.8059 11.1591 41.7323 11.1509 41.6586L11.1484 41.6398C11.1107 41.3 11.0784 40.9599 11.0513 40.6193L11.0367 40.4222C11.0325 40.3682 11.0287 40.3139 11.0254 40.259C11.0254 40.2465 11.0237 40.2335 11.0229 40.2218L11.0091 40.0034C11.0041 39.9243 11.0003 39.8452 10.9961 39.7662C10.9919 39.6875 10.9877 39.6084 10.9844 39.5289L10.976 39.3218L10.9735 39.259L10.9672 39.0674L10.9627 38.9051C10.9627 38.8402 10.9597 38.7749 10.9584 38.7101L10.9551 38.5055C10.9543 38.4373 10.9551 38.3695 10.9534 38.3013C10.9513 38.2327 10.9534 38.1645 10.9534 38.0959C10.9534 20.5845 25.1505 6.3875 42.6634 6.3875C60.1764 6.3875 74.373 20.5837 74.373 38.0959V38.5055C74.373 38.5737 74.3713 38.6423 74.3696 38.7101C74.3696 38.767 74.3675 38.8226 74.3659 38.8795C74.3659 38.9302 74.3638 38.9804 74.3617 39.0293C74.3617 39.0934 74.3579 39.157 74.3558 39.221V39.2264C74.3504 39.3653 74.3445 39.5042 74.3387 39.6431L74.3362 39.6892L74.3253 39.8967L74.3152 40.0611C74.2918 40.4507 74.2613 40.8402 74.224 41.2289V41.2344C74.2173 41.3072 74.2098 41.3804 74.2019 41.4532C74.1834 41.6226 74.1646 41.7921 74.1458 41.9616L74.1245 42.1318L74.0981 42.3318C74.0889 42.4051 74.0788 42.4779 74.0684 42.5507C74.0571 42.6323 74.045 42.7134 74.0332 42.7946L74.004 42.9862L73.9696 43.2038C73.9579 43.2762 73.9462 43.3482 73.9324 43.4205C73.9182 43.4925 73.9073 43.5645 73.8947 43.6369C73.8696 43.7808 73.8437 43.9243 73.8157 44.0678C73.76 44.3536 73.7019 44.6385 73.6404 44.923C73.6249 44.9938 73.609 45.0649 73.5927 45.1356C72.7002 44.2682 71.5186 43.7959 70.2148 43.7959C69.032 43.7959 67.8161 44.1871 66.5989 44.959C65.791 45.472 64.8985 46.3808 63.9793 47.5235C63.1278 46.3423 61.9362 45.5578 60.5743 45.3431C60.3144 45.3026 60.0517 45.2816 59.7885 45.2812C56.6759 45.2812 54.8031 47.9812 54.0948 50.4101C53.7437 51.2306 52.0575 54.9678 49.5207 57.5025C45.6596 61.3511 44.6852 65.3172 46.5676 69.5653ZM79.3039 61.0264L79.2914 61.0636C79.2826 61.0875 79.2738 61.1113 79.2642 61.1347C79.2491 61.1703 79.2332 61.205 79.2165 61.2398C79.1759 61.3226 79.1299 61.403 79.0793 61.4799C79.0094 61.5841 78.9328 61.6837 78.8495 61.7774C78.8303 61.7992 78.8119 61.8205 78.7901 61.8419C78.7608 61.8741 78.7295 61.9055 78.6985 61.9368C78.1349 62.4954 77.2763 62.9845 76.3056 63.4339C76.1956 63.4837 76.0843 63.5335 75.9713 63.5833L75.8592 63.6331C75.7843 63.6661 75.7098 63.6992 75.6311 63.7314C75.5546 63.764 75.4776 63.7962 75.4006 63.828L75.1671 63.9247C74.6211 64.1494 74.0617 64.3632 73.5157 64.5749L73.2826 64.6653L73.0517 64.7557C72.8985 64.8155 72.747 64.8753 72.5977 64.9352L72.3755 65.0247L72.1575 65.1142L72.05 65.159C71.9789 65.1891 71.9086 65.2184 71.8391 65.2485C70.2332 65.9372 69.0784 66.6381 69.3211 67.508C69.3278 67.5326 69.3353 67.5561 69.3437 67.5787C69.3655 67.6431 69.3952 67.7042 69.432 67.7611C69.4538 67.7954 69.4789 67.8276 69.5069 67.8569C69.7922 68.1531 70.3115 68.1063 70.9663 67.8711C71.0194 67.8519 71.0738 67.8314 71.1286 67.8096C71.1663 67.7954 71.2035 67.7803 71.2412 67.7653L71.2977 67.7414C71.4475 67.6778 71.606 67.6071 71.7684 67.5297C71.809 67.5109 71.85 67.4925 71.891 67.4707C72.6914 67.0795 73.5989 66.5519 74.4994 66.072C74.6374 65.9971 74.7759 65.9255 74.9136 65.8544C75.1387 65.7377 75.3659 65.6251 75.5952 65.5176C76.4479 65.1167 77.2491 64.8322 77.8939 64.8322C78.196 64.8322 78.4634 64.8942 78.6855 65.0364L78.7228 65.0611C78.8353 65.1406 78.9332 65.2381 79.0131 65.3502C79.0316 65.3766 79.0508 65.4038 79.0671 65.4318C79.0847 65.4607 79.1014 65.4904 79.1173 65.5205C79.4357 66.1247 79.1692 66.7511 78.5458 67.3649C77.947 67.954 77.0157 68.5318 75.9567 69.067C75.8784 69.1067 75.7993 69.1464 75.7198 69.1849C72.5688 70.7322 68.4433 71.8975 68.3856 71.9121C67.286 72.1971 65.7136 72.5715 63.9425 72.8515L63.6801 72.8921L63.6374 72.8983C63.2358 72.9586 62.8328 73.0117 62.4291 73.0577L62.3918 73.0615C61.6575 73.1452 60.9044 73.2059 60.15 73.2314H60.1387C59.8676 73.2414 59.5969 73.246 59.3257 73.246H59.0136C58.6002 73.2402 58.1872 73.2218 57.7751 73.19C57.7655 73.19 57.7554 73.19 57.7454 73.1879C57.5981 73.1766 57.4504 73.1628 57.3036 73.1464C57.0508 73.1192 56.7985 73.0858 56.5471 73.0464C56.4492 73.0301 56.3446 73.013 56.2437 72.9954C56.1977 72.987 56.1521 72.9787 56.1065 72.9695L56.0956 72.9674C55.9504 72.9397 55.8061 72.9092 55.6621 72.8762C55.5789 72.8573 55.4952 72.8385 55.4128 72.8163L55.3634 72.8033C55.3224 72.7933 55.2822 72.7824 55.2421 72.7716L55.2199 72.7657L55.0906 72.7284C55.0437 72.7151 54.9973 72.7013 54.9504 72.6874L54.9337 72.6824L54.8119 72.6452C54.7659 72.631 54.7203 72.6159 54.6747 72.6013C54.637 72.5887 54.5998 72.5757 54.5621 72.5636L54.4797 72.5347C54.4002 72.5071 54.3216 72.4778 54.2429 72.4477L54.1684 72.4188L54.1069 72.3941C53.9885 72.3464 53.8705 72.2967 53.7538 72.2444L53.6759 72.2071L53.663 72.2013C53.6354 72.1883 53.6082 72.1753 53.5806 72.1636C53.5266 72.1377 53.473 72.1109 53.4199 72.0837L53.404 72.0757L53.327 72.0351C53.1902 71.964 53.0559 71.8879 52.9245 71.8067L52.8525 71.7628C52.8153 71.7402 52.7814 71.7172 52.7458 71.6941L52.6521 71.6318C52.6182 71.6092 52.5843 71.5862 52.5513 71.5623L52.491 71.5197C52.4274 71.4741 52.3651 71.4276 52.3036 71.3795C52.2709 71.3544 52.2387 71.3285 52.2065 71.3046C52.1349 71.2473 52.0651 71.1883 51.996 71.1276L51.9931 71.1251C51.9257 71.0669 51.8601 71.0067 51.796 70.9452L51.7927 70.941C51.7592 70.9092 51.7266 70.8774 51.6939 70.8444C51.6617 70.8113 51.6291 70.7787 51.5977 70.7456C51.5659 70.7121 51.5341 70.6782 51.5032 70.6435C51.473 70.6109 51.4437 70.5778 51.4144 70.5443L51.4044 70.5331C51.2534 70.3577 51.1119 70.1741 50.981 69.9828L50.9291 69.9063C50.8948 69.8557 50.8609 69.8046 50.8274 69.7536L50.7287 69.6017C50.6801 69.5276 50.6329 69.4527 50.5868 69.3774C50.5538 69.3239 50.5211 69.2703 50.4889 69.2163C50.4617 69.1703 50.4345 69.1247 50.4086 69.0795C50.394 69.0548 50.3801 69.0297 50.3663 69.0046C50.3525 68.9787 50.3362 68.9523 50.3216 68.9259L50.2981 68.8845C50.2902 68.8707 50.2877 68.8665 50.2835 68.8573C50.255 68.8075 50.2274 68.7569 50.2006 68.7054C50.1885 68.6833 50.1764 68.6607 50.1634 68.6385L50.1257 68.5665L50.0885 68.495L50.0165 68.3498C50.0048 68.326 49.9935 68.3021 49.9822 68.2782C49.9576 68.2268 49.9341 68.1762 49.9107 68.1255C49.9015 68.105 49.8919 68.0845 49.8835 68.064C49.8513 67.9941 49.8207 67.9234 49.7919 67.8519C49.7722 67.8046 49.7542 67.7578 49.735 67.7109C49.681 67.5728 49.6303 67.4335 49.5839 67.2925C49.5701 67.2506 49.5563 67.2092 49.5442 67.1674C49.514 67.0724 49.4868 66.9766 49.4626 66.8799C49.4329 66.7674 49.4065 66.6536 49.3843 66.5393C49.3701 66.472 49.3575 66.4042 49.3471 66.336C49.3358 66.2686 49.3262 66.2013 49.3182 66.1343C49.3011 66.0008 49.2889 65.867 49.2818 65.7326C49.2818 65.7105 49.2797 65.6879 49.2793 65.6657C49.2772 65.6214 49.276 65.577 49.2755 65.5326C49.2521 63.7452 50.1571 62.026 52.0914 60.0925C55.5366 56.6502 57.5425 51.613 57.5425 51.613C57.5425 51.613 57.5964 51.4017 57.709 51.0979C57.7467 50.9971 57.786 50.8967 57.8274 50.7975C57.8747 50.6854 57.9253 50.5745 57.9797 50.4657L57.9956 50.4339C58.0655 50.295 58.1412 50.1599 58.2236 50.0281C58.2425 49.9975 58.2609 49.967 58.2826 49.9369C58.3437 49.8456 58.4086 49.7574 58.4768 49.6716C58.5295 49.6059 58.5856 49.5423 58.6446 49.482C58.8446 49.2762 59.0726 49.108 59.3307 49.018L59.3634 49.0076C59.3851 49.0005 59.4065 48.9938 59.4287 48.9875C59.4546 48.9808 59.4805 48.9745 59.5065 48.9691L59.5182 48.967C59.573 48.9561 59.6278 48.9486 59.6835 48.9448H59.6885C59.7174 48.9448 59.7462 48.9419 59.7759 48.9419C59.85 48.9423 59.9236 48.9482 59.9969 48.9594C60.3073 49.0084 60.6031 49.1933 60.8575 49.4787L60.8918 49.5189C60.9747 49.6159 61.05 49.7197 61.1169 49.8285C61.1672 49.9092 61.2144 49.9942 61.2592 50.0833C61.2772 50.121 61.2943 50.1553 61.3115 50.1921C61.3199 50.2109 61.3282 50.2293 61.3362 50.2486C61.3529 50.2858 61.3684 50.3235 61.3839 50.3628C61.4713 50.5871 61.5391 50.8184 61.5868 51.0544C61.6374 51.3092 61.6667 51.5678 61.6751 51.8276C61.678 51.9419 61.678 52.0574 61.6751 52.1745C61.673 52.2189 61.6709 52.2636 61.6676 52.3084C61.6333 52.8059 61.5249 53.2954 61.3458 53.7611C61.3278 53.8071 61.3082 53.854 61.2897 53.9009C61.1998 54.1159 61.0952 54.3243 60.9772 54.5251C60.9098 54.6398 60.837 54.7536 60.7592 54.8666L60.7115 54.9343C60.527 55.1921 60.3211 55.4339 60.096 55.6573C59.8743 55.8795 59.6366 56.085 59.3851 56.2728C59.1328 56.459 58.8964 56.6657 58.678 56.8904C58.0492 57.5506 57.9027 58.1327 58.0441 58.5741C58.0609 58.6239 58.0805 58.6728 58.1031 58.7201C58.1554 58.8226 58.2232 58.9168 58.3044 58.9988L58.3266 59.0209C58.3496 59.0431 58.3738 59.0645 58.3985 59.085L58.4236 59.1055C58.4847 59.1523 58.5492 59.1942 58.6165 59.2306C58.6358 59.241 58.6538 59.2515 58.6759 59.2615C58.7684 59.3076 58.8651 59.3444 58.9646 59.3724L58.9923 59.3795L59.0295 59.3896L59.0621 59.3975L59.0969 59.405L59.1316 59.4122L59.1646 59.4176C59.1893 59.4222 59.2144 59.426 59.2391 59.4293L59.2634 59.4327L59.3065 59.4373L59.3333 59.4398L59.3776 59.4431H59.4031L59.4492 59.4452H59.5943L59.6358 59.4431L59.6835 59.4402L59.7416 59.4347L59.796 59.4281C59.8082 59.4281 59.8207 59.4247 59.8333 59.4226C60.0249 59.3946 60.2115 59.3406 60.3881 59.2619C60.4257 59.246 60.463 59.2285 60.4973 59.2101C60.5709 59.1732 60.6425 59.1318 60.7111 59.0862C60.8069 59.0235 60.8973 58.9527 60.9822 58.8758L61.0412 58.8197C61.0504 58.8105 61.06 58.8017 61.0688 58.7921C61.1266 58.7343 61.181 58.6732 61.2316 58.6092C61.3211 58.4963 61.4006 58.3762 61.4697 58.2498C62.2885 56.7611 63.1466 55.2942 64.0433 53.8511L64.1663 53.654L64.2906 53.4565C64.3529 53.3569 64.4153 53.2582 64.4776 53.1607L64.5408 53.0624L64.6667 52.8661C64.8358 52.6046 65.0052 52.3461 65.1759 52.09L65.3035 51.8992C65.5596 51.5201 65.8153 51.1511 66.068 50.8L66.1943 50.6268C66.4692 50.2469 66.7558 49.8758 67.0533 49.5134L67.1717 49.372C67.191 49.3482 67.209 49.3251 67.2303 49.3021L67.3462 49.1678C67.3655 49.1456 67.3839 49.1239 67.404 49.1025L67.5161 48.9758L67.5726 48.9147C67.627 48.8557 67.6822 48.7975 67.7383 48.7398C67.7759 48.7025 67.8107 48.6649 67.8471 48.6302C68.0592 48.413 68.2931 48.2184 68.5454 48.0498L68.6035 48.0126L68.6625 47.9749C68.7002 47.9515 68.7383 47.9289 68.7772 47.9076C69.7663 47.3465 70.5855 47.3051 71.0567 47.7762C71.3425 48.062 71.5002 48.5352 71.4918 49.1933C71.4918 49.2226 71.4918 49.2515 71.4893 49.2816V49.3143C71.4893 49.344 71.4868 49.3745 71.4847 49.4051C71.4847 49.4423 71.4801 49.48 71.4763 49.5172C71.4726 49.5548 71.4709 49.5833 71.4671 49.6164C71.4671 49.626 71.465 49.6356 71.4638 49.6452C71.4609 49.6745 71.4571 49.7042 71.4533 49.7335C71.4533 49.7427 71.4533 49.7515 71.4496 49.7607C71.4454 49.8005 71.4395 49.8402 71.4324 49.8795C71.4278 49.9159 71.422 49.9523 71.4148 49.9887C71.4119 50.0097 71.4077 50.0302 71.4044 50.0511C71.3935 50.1105 71.3793 50.1695 71.3621 50.2272C71.3299 50.3352 71.2906 50.441 71.2441 50.544C71.224 50.5887 71.2027 50.6335 71.1809 50.6774C71.1358 50.7682 71.0847 50.8611 71.0286 50.9574C71.0006 51.0046 70.9717 51.0536 70.9408 51.1025L70.8939 51.177C70.8462 51.2519 70.7964 51.3276 70.7445 51.4042C70.6927 51.4808 70.637 51.559 70.5772 51.6381C70.4998 51.7435 70.4182 51.8511 70.332 51.9599L70.2667 52.0423C70.0822 52.272 69.8931 52.4979 69.6998 52.7201L69.5462 52.8938L69.468 52.9816C69.3613 53.1009 69.2542 53.2193 69.1462 53.3368L69.0634 53.4264C69.0086 53.4858 68.9512 53.5461 68.8964 53.6059C68.8404 53.6666 68.7835 53.7268 68.7266 53.7871L68.5542 53.9686L68.3797 54.1507C68.3215 54.2113 68.263 54.2728 68.204 54.3335L67.8487 54.6996C66.1521 56.4398 64.3642 58.1741 63.7592 59.2553C63.719 59.326 63.6826 59.3983 63.6496 59.4724C63.5638 59.6691 63.5278 59.8373 63.5521 59.9732C63.56 60.018 63.5759 60.0611 63.5989 60.1C63.6333 60.159 63.6747 60.2134 63.7224 60.2619C63.7446 60.2837 63.7676 60.3042 63.7927 60.3226C63.9169 60.4113 64.0676 60.4569 64.2203 60.4523H64.268L64.3169 60.449L64.3663 60.4431L64.4069 60.4373C64.4123 60.4368 64.4178 60.4356 64.4232 60.4343L64.4605 60.4272L64.4705 60.4247L64.5115 60.4159L64.5261 60.4122L64.5701 60.4009L64.6224 60.3854C64.6567 60.3749 64.691 60.3632 64.7261 60.3502C64.8019 60.3234 64.8759 60.2925 64.9483 60.2578C64.9667 60.249 64.9855 60.2406 65.0035 60.231L65.0592 60.2034C65.132 60.1665 65.2044 60.1268 65.2772 60.0837C65.3353 60.0494 65.3931 60.0142 65.4508 59.977L65.5069 59.9398C65.5253 59.9281 65.5441 59.9159 65.5625 59.9021L65.6182 59.8649L65.6475 59.8444L65.7278 59.7883C65.8027 59.7364 65.8726 59.6833 65.9437 59.6293L65.95 59.6247L66.0621 59.5377C66.2157 59.4163 66.3617 59.2942 66.4935 59.1791L66.5814 59.1017L66.5897 59.0942L66.6353 59.0536C66.7433 58.9569 66.8395 58.8666 66.9199 58.7917L66.9525 58.7599L67.0316 58.685L67.0789 58.6389L67.0952 58.6222L67.0998 58.6176C67.1399 58.5774 67.1399 58.5774 67.1801 58.5368L67.1835 58.5335L67.1985 58.5201C67.2031 58.5151 67.2094 58.5101 67.2165 58.5038L67.2224 58.4983L67.2383 58.4841L67.3232 58.4092L67.3709 58.3661C67.3943 58.3461 67.4199 58.323 67.4458 58.2984L67.5031 58.2481C67.5132 58.2398 67.5232 58.2301 67.5337 58.2209L67.5935 58.1686L67.6818 58.0917L67.7282 58.0511C67.9102 57.8925 68.132 57.7013 68.386 57.4858L68.4902 57.3979L68.6625 57.2536L68.8383 57.1063C69.0684 56.9155 69.3161 56.7126 69.578 56.5017L69.75 56.3636C69.8964 56.2473 70.0471 56.1281 70.1994 56.0084C70.2604 55.9603 70.3228 55.9122 70.3864 55.8645C70.5424 55.744 70.6994 55.6239 70.8567 55.5055C71.2157 55.2343 71.586 54.9628 71.9604 54.6979L72.1215 54.5862C72.2337 54.5084 72.3458 54.431 72.4583 54.3553L72.56 54.2862C72.7613 54.1507 72.9642 54.018 73.1688 53.8883L73.2705 53.8243L73.3713 53.7615C73.4722 53.6992 73.573 53.6373 73.6726 53.5774L73.7726 53.518L73.973 53.4013C74.0387 53.3632 74.104 53.326 74.1692 53.2892L74.2085 53.267L74.3642 53.182C74.4286 53.1469 74.4935 53.113 74.5575 53.0799L74.6537 53.0306L74.7466 52.9833C74.9592 52.8766 75.1755 52.7779 75.3956 52.6875C75.4257 52.6749 75.4554 52.6628 75.4851 52.6498C75.5441 52.6251 75.6027 52.6025 75.6609 52.5825C75.719 52.5628 75.7763 52.5423 75.8328 52.5222C75.8843 52.5051 75.9341 52.4892 75.9826 52.4741L75.9989 52.4691C76.0249 52.4611 76.0508 52.4536 76.0768 52.4469L76.0843 52.4448C76.137 52.4297 76.1897 52.4159 76.2429 52.4034H76.247C76.3253 52.3845 76.4014 52.3687 76.4759 52.3561C76.5014 52.3519 76.5265 52.3477 76.5508 52.3444C76.6232 52.3335 76.696 52.326 76.7688 52.3209C76.8148 52.3176 76.8613 52.3163 76.9073 52.3163H76.9424C76.9893 52.3163 77.0345 52.3193 77.0793 52.3239C77.0998 52.3239 77.1203 52.3276 77.1403 52.3306H77.1487C77.1688 52.3327 77.1893 52.336 77.209 52.3402C77.2286 52.3444 77.2487 52.3473 77.268 52.3519H77.2747C77.2939 52.3561 77.3119 52.3615 77.332 52.367C77.4918 52.4101 77.6387 52.4912 77.7604 52.6034L77.7713 52.6143L77.7926 52.6352L77.8136 52.6573C77.9814 52.8339 78.1203 53.036 78.2249 53.2561L78.2412 53.2933C78.2767 53.377 78.3048 53.4636 78.3244 53.5523C78.3788 53.7996 78.3642 54.0573 78.2818 54.2967C78.2462 54.4009 78.2027 54.5021 78.1512 54.5992L78.1169 54.6611C77.9864 54.8799 77.8324 55.0837 77.6571 55.2686L77.6194 55.3084C77.537 55.3958 77.4512 55.4808 77.3629 55.5624C77.3349 55.5887 77.306 55.6151 77.2767 55.6414L77.2324 55.6816C77.1404 55.7632 77.0462 55.8427 76.9508 55.9205C76.9341 55.9339 76.9169 55.9473 76.9006 55.9615C76.8341 56.0151 76.7655 56.0695 76.6943 56.1239C76.4491 56.3113 76.1993 56.4921 75.945 56.6665C75.7952 56.7691 75.6404 56.8724 75.4805 56.9774C75.1826 57.1728 74.8826 57.364 74.5797 57.5515C74.4922 57.6055 74.4044 57.6603 74.3148 57.7147C73.4918 58.2209 72.5793 58.7624 71.606 59.3511L71.3542 59.5042C71.0784 59.6724 70.8182 59.8331 70.5734 59.9858L70.45 60.0636L70.2165 60.2134C70.124 60.272 70.0341 60.3297 69.9466 60.3866C69.8805 60.4289 69.8161 60.4707 69.7529 60.5122L69.6282 60.5942C69.5676 60.6339 69.5073 60.6737 69.4471 60.7142L69.3885 60.7515C69.3266 60.7929 69.2663 60.8335 69.2077 60.8737L69.1119 60.9389L68.9994 61.0172L68.8956 61.0896C68.7316 61.2046 68.5696 61.3222 68.409 61.4419L68.3529 61.4845C68.2897 61.5322 68.2286 61.5799 68.1696 61.6264L68.0927 61.6879C67.963 61.7921 67.8454 61.8921 67.7391 61.9875L67.6872 62.0352C67.6575 62.0624 67.6282 62.0896 67.6006 62.1163C67.5809 62.1347 67.563 62.1536 67.5433 62.172L67.5161 62.1988C67.4563 62.2586 67.3981 62.3201 67.3416 62.3833L67.314 62.4151C67.2525 62.4862 67.1989 62.5544 67.1517 62.6209L67.1307 62.6511C67.0763 62.7306 67.0282 62.8147 66.9872 62.9021L66.973 62.9327L66.9642 62.954L66.9571 62.9724L66.9475 62.9979C66.9445 63.0067 66.9387 63.0222 66.9353 63.0356C66.9182 63.0854 66.9056 63.1368 66.8973 63.1891L66.8931 63.2172L66.8897 63.2427L66.8876 63.2674V63.3988C66.8876 63.4096 66.8876 63.4209 66.8902 63.4322C66.8906 63.4389 66.8914 63.4456 66.8923 63.4523C66.8923 63.4632 66.8952 63.4741 66.8964 63.4854L66.9044 63.5314V63.5335C66.9073 63.5481 66.9102 63.5628 66.914 63.5774C66.9178 63.5921 66.9215 63.6084 66.9261 63.6239C66.9395 63.6711 66.9558 63.718 66.9747 63.7636C66.9747 63.767 66.9776 63.7707 66.9789 63.7741C66.9839 63.7854 66.9885 63.7971 66.9939 63.8084C67.0144 63.8561 67.0374 63.9025 67.0625 63.9481L67.0889 63.9954L67.1165 64.0431L67.1454 64.0908C67.1504 64.0988 67.1558 64.1059 67.1621 64.113L67.1717 64.123L67.1818 64.1322L67.1931 64.141C67.2006 64.1465 67.2086 64.1511 67.2169 64.1557C67.2253 64.1594 67.2345 64.1636 67.2437 64.167C67.2538 64.1703 67.2638 64.1732 67.2738 64.1757C67.5153 64.2301 68.0115 64.0301 68.6705 63.682L68.7889 63.6193L68.9893 63.5101L69.0876 63.4557C69.1571 63.418 69.2286 63.3762 69.301 63.3347L69.4337 63.2598C70.3052 62.7582 71.3466 62.1134 72.4228 61.4841C72.5232 61.4251 72.6245 61.3665 72.7257 61.308L72.9291 61.1783C73.0307 61.1197 73.132 61.0619 73.2337 61.005C73.6663 60.759 74.1048 60.5226 74.5479 60.2963L74.7466 60.1954C74.8788 60.1301 75.0098 60.0665 75.1391 60.0046C75.3897 59.8858 75.6429 59.7732 75.8985 59.6665L76.0387 59.6096L76.0558 59.6029C76.7981 59.3088 77.4713 59.1268 78.0161 59.1268C78.1341 59.126 78.2516 59.1356 78.368 59.1557H78.3713C78.409 59.1624 78.4429 59.1699 78.4772 59.1787H78.4834C78.5337 59.1908 78.583 59.2063 78.6307 59.2255C78.6688 59.2394 78.7056 59.2557 78.7412 59.2749C78.8972 59.354 79.0307 59.4707 79.1303 59.6147C79.1387 59.6268 79.1466 59.6393 79.1542 59.6523C79.191 59.7084 79.2228 59.7674 79.2487 59.8293C79.2642 59.8649 79.2784 59.9017 79.2918 59.9414C79.3052 59.9816 79.3169 60.0201 79.329 60.0615C79.4177 60.3787 79.409 60.7142 79.3039 61.0264Z" fill="#FF9D00"/>
<path fill-rule="evenodd" clip-rule="evenodd" d="M74.368 38.3009V38.0959C74.368 20.5838 60.1763 6.38757 42.663 6.38757C25.1504 6.38757 10.9534 20.5846 10.9534 38.0959L10.953 38.1645C10.9526 38.2101 10.9522 38.2553 10.953 38.3009C10.955 38.3691 10.9557 38.4373 10.9551 38.5055L10.9576 38.6561L10.9585 38.7105L10.9606 38.785C10.9614 38.8252 10.9626 38.8649 10.9626 38.9051L10.9668 39.0679L10.9735 39.2591L10.9756 39.3218L10.984 39.5197V39.5289L10.9957 39.7603V39.7662C10.9999 39.8453 11.0041 39.9243 11.0091 40.003C11.0133 40.0762 11.0179 40.149 11.0229 40.2218L11.0242 40.2348C11.0278 40.2971 11.032 40.3599 11.0367 40.4222L11.038 40.4386C11.0421 40.4988 11.0467 40.5595 11.0518 40.6193L11.0526 40.631L11.061 40.7356C11.086 41.0373 11.1153 41.339 11.1488 41.6398L11.1509 41.6586L11.176 41.8796L11.2049 42.1122C11.2243 42.267 11.2449 42.4214 11.2668 42.5758C11.2799 42.6691 11.2934 42.762 11.3074 42.8549L11.3095 42.8662C11.3408 43.0762 11.3745 43.2863 11.4108 43.4955C11.5148 44.1026 11.637 44.7068 11.7773 45.3068L11.7794 45.3164L11.7928 45.3729C11.8053 45.4264 11.8179 45.48 11.8313 45.534L11.8543 45.5059C12.7748 44.4055 14.0953 43.7988 15.5727 43.7988C16.7568 43.7988 17.9718 44.19 19.189 44.962C19.9965 45.475 20.8894 46.3837 21.8082 47.5264C22.6584 46.3452 23.85 45.5607 25.2132 45.3465C25.4735 45.3055 25.7362 45.2846 25.999 45.2842C29.1107 45.2842 30.9848 47.9846 31.6927 50.413C32.0421 51.2339 33.7283 54.9708 36.2705 57.4988C40.1345 61.3595 41.1015 65.3435 39.1893 69.6092H39.1956C39.3262 69.6235 39.4571 69.6368 39.5885 69.649C39.6667 69.6565 39.745 69.664 39.8232 69.6707L39.8508 69.6732C39.9082 69.6787 39.9659 69.6837 40.0236 69.6879L40.1826 69.7009C40.3341 69.7126 40.486 69.723 40.6387 69.7331L40.7592 69.7402L40.855 69.7456L40.9149 69.749L41.1015 69.759L41.1525 69.7611L41.3492 69.7695L41.5672 69.7779L41.7429 69.7829L41.7722 69.7841C41.809 69.7854 41.8467 69.7871 41.8839 69.7871L41.9236 69.7879C42.1705 69.7938 42.417 69.7967 42.6638 69.7967H42.9257L43.1132 69.7946C43.1592 69.7921 43.2048 69.7921 43.2508 69.7921H43.3236L43.3868 69.7908C43.4115 69.79 43.4366 69.7892 43.4613 69.7892H43.5362L43.6831 69.785L43.904 69.7774L44.1475 69.767C44.2174 69.764 44.2868 69.7607 44.3567 69.7569L44.4316 69.7527L44.5425 69.7465L44.6082 69.7427L44.6571 69.7398L44.8818 69.7247C44.9567 69.7201 45.0316 69.7143 45.1065 69.7084L45.3098 69.6925L45.4534 69.6804L45.6103 69.6661C45.7713 69.6511 45.932 69.6352 46.0918 69.6184C46.1939 69.6071 46.2952 69.5958 46.3969 69.5837L46.5755 69.5624C44.6931 65.3143 45.6676 61.3482 49.5161 57.5026C52.0525 54.9683 53.7387 51.2306 54.0902 50.4101C54.7985 47.9812 56.6709 45.2812 59.7835 45.2812C60.0466 45.2817 60.3094 45.3022 60.5692 45.3436C61.9312 45.5578 63.1232 46.3427 63.9747 47.5235C64.8939 46.3808 65.7864 45.472 66.5939 44.9591C67.8111 44.1871 69.027 43.7959 70.2098 43.7959C71.5136 43.7959 72.6956 44.2687 73.588 45.1356C73.637 44.9172 73.6843 44.6988 73.7295 44.4796C73.7571 44.3427 73.7843 44.2055 73.8111 44.0679C73.8437 43.8988 73.8746 43.7289 73.9031 43.5591C73.9106 43.513 73.9186 43.467 73.9274 43.4206C73.9412 43.3482 73.9533 43.2766 73.9646 43.2038L73.9692 43.1762L73.9989 42.9867L74.0282 42.7946L74.0286 42.7925C74.0403 42.7122 74.0525 42.6314 74.0634 42.5507C74.0721 42.4896 74.0805 42.4285 74.0885 42.367L74.0935 42.3319L74.1194 42.1319L74.1408 41.9616C74.1537 41.8494 74.1663 41.7373 74.1784 41.6248C74.1839 41.58 74.1885 41.5348 74.1931 41.4896L74.1972 41.4532C74.2052 41.3783 74.2123 41.3038 74.219 41.2289L74.2357 41.0549C74.2705 40.6691 74.2985 40.2833 74.3203 39.8967V39.8942L74.3316 39.6892L74.3336 39.6432L74.342 39.4486C74.3454 39.3754 74.3483 39.3013 74.3508 39.2264V39.221L74.3529 39.167C74.355 39.121 74.3567 39.075 74.3567 39.0294L74.3575 39.0105C74.3592 38.9679 74.3608 38.9235 74.3608 38.8796L74.3621 38.8419C74.3633 38.798 74.3646 38.7545 74.3646 38.7105L74.3654 38.6733C74.3667 38.6172 74.368 38.5616 74.368 38.5055V38.3009ZM34.7986 69.9774C37.3094 66.2946 37.1316 63.5306 33.686 60.0871C30.2404 56.6436 28.235 51.6076 28.235 51.6076C28.235 51.6076 27.4864 48.6821 25.7793 48.9511C24.0722 49.2197 22.82 53.5908 26.394 56.2666C29.968 58.9423 25.6831 60.7565 24.3074 58.2457C22.9312 55.7344 19.1756 49.2796 17.2279 48.0448C15.2806 46.8101 13.9112 47.5022 14.3702 50.0469C14.5982 51.3101 16.7187 53.4657 18.6999 55.48C20.7099 57.5239 22.5764 59.4214 22.1777 60.0929C21.3856 61.4268 18.5961 58.526 18.5961 58.526C18.5961 58.526 9.86139 50.5775 7.95972 52.649C6.207 54.5582 8.90993 56.1812 13.0756 58.6825C13.43 58.8954 13.7949 59.1147 14.1685 59.3406C18.9342 62.226 19.3049 62.9871 18.6287 64.0787C18.379 64.482 16.7836 63.5243 14.8212 62.3461C11.476 60.3377 7.06474 57.6896 6.44215 60.0599C5.90282 62.1113 9.148 63.3682 12.0911 64.5084C14.543 65.4582 16.7856 66.3268 16.4559 67.5059C16.1141 68.7281 14.261 67.7088 12.235 66.5942C9.96097 65.3427 7.46935 63.9716 6.65428 65.5189C5.11286 68.4435 17.2861 71.8866 17.3861 71.9117C21.3191 72.9318 31.3073 75.0933 34.7986 69.9774ZM50.9759 69.9774C48.4646 66.2946 48.6429 63.5306 52.0885 60.0871C55.5341 56.6436 57.5399 51.6076 57.5399 51.6076C57.5399 51.6076 58.2881 48.6821 59.9952 48.9511C61.7023 49.2197 62.955 53.5908 59.3805 56.2666C55.8061 58.9423 60.0914 60.7565 61.4676 58.2457C62.8433 55.7344 66.5973 49.2796 68.5445 48.0448C70.4918 46.8101 71.8617 47.5022 71.4027 50.0469C71.1747 51.3101 69.0542 53.4662 67.0726 55.4804C65.0629 57.5239 63.1964 59.4214 63.5952 60.0929C64.3868 61.4268 67.1788 58.5243 67.1788 58.5243C67.1788 58.5243 75.9131 50.5758 77.8148 52.6473C79.5675 54.5565 76.8642 56.18 72.6985 58.6816C72.3441 58.8942 71.9797 59.113 71.606 59.3394C66.8399 62.2243 66.4696 62.9858 67.1458 64.077C67.3956 64.4804 68.991 63.5226 70.9529 62.3448C74.2985 60.3364 78.7098 57.6879 79.3324 60.0582C79.8717 62.1097 76.6265 63.367 73.683 64.5071C71.2311 65.4569 68.9889 66.3251 69.3182 67.5046C69.66 68.7268 71.5123 67.7071 73.5374 66.5925C75.8115 65.341 78.3035 63.9695 79.119 65.5172C80.6604 68.444 68.4855 71.8833 68.3868 71.9088C64.4537 72.9318 54.4655 75.0933 50.9759 69.9774Z" fill="#FFD21E"/>
<path fill-rule="evenodd" clip-rule="evenodd" d="M52.9613 29.4649C53.4554 29.6398 53.8232 30.1725 54.173 30.6787C54.6458 31.3637 55.086 32.0005 55.7613 31.6415C56.5583 31.2181 57.2115 30.5678 57.6387 29.7729C58.0659 28.9781 58.2475 28.0744 58.1609 27.1762C58.0964 26.5046 57.8839 25.8556 57.5383 25.2761C57.1926 24.6966 56.7228 24.201 56.1629 23.8248C55.6027 23.4488 54.9659 23.2017 54.2989 23.1013C53.6316 23.0009 52.9504 23.0498 52.3044 23.2444C51.4404 23.5046 50.673 24.0151 50.0989 24.7112C49.5253 25.4074 49.1705 26.2581 49.0797 27.1557C48.9893 28.0536 49.1671 28.9581 49.5906 29.7549C49.9035 30.3436 50.5981 30.0662 51.3312 29.7729C51.9061 29.5432 52.5044 29.3038 52.9613 29.4649ZM31.4651 29.4653C30.9709 29.6402 30.6027 30.1729 30.2529 30.6791C29.7801 31.3637 29.34 32.0009 28.6647 31.6419C28.0693 31.3252 27.5517 30.88 27.1488 30.339C26.7458 29.798 26.468 29.1745 26.335 28.5131C26.2019 27.8518 26.217 27.1693 26.3793 26.5146C26.5421 25.8599 26.8475 25.2494 27.2739 24.7269C27.7011 24.2046 28.2383 23.7836 28.8475 23.4939C29.4567 23.2042 30.1228 23.0533 30.7973 23.0518C31.4718 23.0503 32.1383 23.1984 32.7488 23.4853C33.3592 23.7723 33.8985 24.191 34.3278 24.7114C34.9019 25.4075 35.2567 26.2584 35.3475 27.1562C35.4379 28.0541 35.26 28.9586 34.8362 29.7553C34.5224 30.344 33.8278 30.0662 33.0948 29.7729C32.5203 29.5432 31.922 29.3038 31.4651 29.4653ZM49.6358 49.0264C53.0429 46.3419 54.2943 41.9599 54.2943 39.2603C54.2943 37.1264 52.8583 37.798 50.56 38.9356L50.4307 39.0001C48.3207 40.0448 45.5123 41.4356 42.4295 41.4356C39.3462 41.4356 36.5379 40.0444 34.4287 38.9996C32.0559 37.8243 30.5676 37.0871 30.5676 39.2607C30.5676 42.0452 31.899 46.618 35.5538 49.2749C36.0358 48.2959 36.7144 47.4268 37.5479 46.7222C38.381 46.0176 39.3508 45.4929 40.3964 45.1804C40.7613 45.0716 41.137 45.6996 41.522 46.3423C41.8931 46.9628 42.2722 47.5971 42.6584 47.5971C43.0692 47.5971 43.4734 46.972 43.868 46.3615C44.2801 45.7239 44.6818 45.1021 45.0705 45.2264C47.027 45.8544 48.6634 47.2164 49.6358 49.0264Z" fill="#32343D"/>
<path d="M49.6346 49.026C47.8601 50.4243 45.5015 51.362 42.4304 51.362C39.5446 51.362 37.2873 50.5343 35.5538 49.2745C36.0363 48.2959 36.7153 47.4268 37.5484 46.7226C38.3814 46.018 39.3513 45.4929 40.3965 45.18C41.1132 44.9662 41.8722 47.5967 42.658 47.5967C43.4994 47.5967 44.3099 44.9829 45.0706 45.226C47.0262 45.8544 48.6622 47.2164 49.6346 49.026Z" fill="#FF323D"/>
<path fill-rule="evenodd" clip-rule="evenodd" d="M23.3184 33.2616C22.9946 33.4796 22.631 33.6315 22.2485 33.7084C21.8659 33.7854 21.4718 33.7863 21.089 33.711C20.7061 33.6352 20.3418 33.485 20.0172 33.2687C19.6925 33.052 19.4137 32.7737 19.1969 32.449C18.98 32.1248 18.8293 31.7603 18.7535 31.3779C18.6776 30.9951 18.678 30.6009 18.7547 30.2181C18.8314 29.8356 18.9829 29.472 19.2005 29.1478C19.418 28.8238 19.6974 28.546 20.0226 28.3302C20.6765 27.8962 21.4759 27.739 22.2455 27.8933C23.0151 28.0476 23.6921 28.5006 24.1284 29.1532C24.5644 29.8059 24.7242 30.6047 24.5723 31.3746C24.4204 32.1448 23.9694 32.8235 23.3184 33.2616ZM65.7501 33.2616C65.4262 33.4796 65.0626 33.6315 64.6802 33.7084C64.2978 33.7854 63.9036 33.7863 63.5208 33.711C63.1379 33.6352 62.7735 33.485 62.4488 33.2687C62.1241 33.052 61.8455 32.7737 61.6287 32.449C61.4116 32.1248 61.2609 31.7603 61.1852 31.3779C61.1095 30.9951 61.1099 30.6009 61.1865 30.2181C61.263 29.8356 61.4145 29.472 61.6321 29.1478C61.8496 28.8238 62.1292 28.546 62.4543 28.3302C63.1082 27.8962 63.9078 27.739 64.6773 27.8933C65.4467 28.0476 66.1237 28.5006 66.5601 29.1532C66.9961 29.8059 67.1559 30.6047 67.004 31.3746C66.8522 32.1448 66.4011 32.8235 65.7501 33.2616Z" fill="#FFAD03"/>
</svg>
