<svg width="259" height="80" viewBox="0 0 259 80" fill="none" xmlns="http://www.w3.org/2000/svg">
<g clip-path="url(#clip0_5328_2631)">
<path d="M80 79.997C80 79.9985 79.9985 80 79.997 80H0.00296296C0.00148148 80 0 79.9985 0 79.997V0.00296296C0 0.00148148 0.00148148 0 0.00296296 0H79.9978C79.9993 0 80.0007 0.00148148 80.0007 0.00296296V79.997H80Z" fill="white"/>
<path d="M78.6667 78.6637C78.6667 78.6652 78.6652 78.6667 78.6637 78.6667H1.33634C1.33486 78.6667 1.33337 78.6652 1.33337 78.6637V1.33634C1.33337 1.33486 1.33486 1.33337 1.33634 1.33337H78.6645C78.666 1.33337 78.6674 1.33486 78.6674 1.33634V78.6637H78.6667Z" fill="#D00000"/>
<path d="M22.4445 61.0126C22.4445 61.0711 22.4785 61.1526 22.5193 61.1934L23.843 62.5171C23.8845 62.5585 23.9659 62.5919 24.0237 62.5919H28.5534C28.6119 62.5919 28.6934 62.5578 28.7341 62.5171L30.0578 61.1934C30.0993 61.1519 30.1326 61.0704 30.1326 61.0126V46.64C30.1326 46.5815 30.1674 46.5008 30.2097 46.4608L35.9645 40.9645C36.0067 40.9245 36.0682 40.9304 36.1008 40.9793L50.6408 62.5052C50.6734 62.5534 50.7482 62.5934 50.8059 62.5934H57.223C57.2815 62.5934 57.3511 62.5511 57.3778 62.4993L58.5422 60.243C58.5689 60.1911 58.5637 60.1097 58.5304 60.0615L41.523 35.4097C41.4897 35.3615 41.4963 35.2889 41.5378 35.2474L57.1808 19.6778C57.2222 19.6363 57.2556 19.5556 57.2556 19.4971V19.2097C57.2556 19.1511 57.2363 19.06 57.2134 19.006L56.3111 16.9311C56.2882 16.8778 56.2208 16.8341 56.163 16.8341H49.82C49.7615 16.8341 49.68 16.8682 49.6393 16.9089L30.2089 36.4126C30.1674 36.4541 30.1341 36.44 30.1341 36.3815V18.4889C30.1341 18.4304 30.1015 18.3482 30.0615 18.3052L28.763 16.9126C28.723 16.8697 28.643 16.8348 28.5845 16.8348H24.0237C23.9652 16.8348 23.8852 16.8697 23.8452 16.9126L22.5156 18.3482C22.4756 18.3911 22.4437 18.4734 22.4437 18.5319V61.0126H22.4445Z" fill="white"/>
</g>
<path d="M105.449 18.6034H110.982V39.0241L131.403 18.6034H139.246L121.82 35.4875L139.731 60.5H132.344L117.684 39.4804L110.982 45.8975V60.5H105.449V18.6034ZM157.612 29.27C159.78 29.27 161.881 29.7834 163.915 30.8102C165.95 31.8179 167.499 33.1298 168.564 34.746C169.591 36.2861 170.275 38.0829 170.617 40.1364C170.922 41.5434 171.074 43.787 171.074 46.8672H148.685C148.78 49.9664 149.512 52.4572 150.881 54.3396C152.25 56.2029 154.37 57.1346 157.241 57.1346C159.922 57.1346 162.061 56.2504 163.658 54.4822C164.571 53.4554 165.218 52.2671 165.598 50.9171H170.646C170.513 52.0389 170.066 53.2938 169.305 54.6818C168.564 56.0508 167.727 57.1726 166.796 58.0472C165.237 59.5683 163.307 60.5951 161.006 61.1275C159.77 61.4317 158.373 61.5838 156.813 61.5838C153.011 61.5838 149.788 60.2053 147.145 57.4483C144.502 54.6723 143.181 50.7935 143.181 45.8119C143.181 40.9064 144.512 36.923 147.174 33.8618C149.835 30.8006 153.315 29.27 157.612 29.27ZM165.797 42.7888C165.588 40.5642 165.103 38.7864 164.343 37.4554C162.936 34.9837 160.588 33.7478 157.298 33.7478C154.941 33.7478 152.963 34.6034 151.366 36.3146C149.769 38.0068 148.923 40.1649 148.828 42.7888H165.797ZM178.716 29.9545H183.593V35.2308C183.992 34.2041 184.972 32.9587 186.531 31.4946C188.09 30.0116 189.887 29.27 191.921 29.27C192.016 29.27 192.178 29.2796 192.406 29.2986C192.634 29.3176 193.024 29.3556 193.575 29.4126V34.8315C193.271 34.7745 192.986 34.7365 192.72 34.7175C192.472 34.6984 192.197 34.6889 191.893 34.6889C189.307 34.6889 187.32 35.5255 185.932 37.1987C184.544 38.8529 183.85 40.7638 183.85 42.9314V60.5H178.716V29.9545ZM203.129 52.3717C203.129 53.8547 203.67 55.0241 204.754 55.8797C205.838 56.7353 207.121 57.1631 208.604 57.1631C210.411 57.1631 212.16 56.7448 213.852 55.9082C216.704 54.5202 218.13 52.2481 218.13 49.0918V44.9563C217.503 45.3556 216.695 45.6884 215.706 45.9545C214.717 46.2207 213.748 46.4109 212.797 46.525L209.688 46.9242C207.825 47.1714 206.427 47.5612 205.496 48.0936C203.918 48.9872 203.129 50.4132 203.129 52.3717ZM215.563 41.9902C216.742 41.8381 217.531 41.3437 217.931 40.5071C218.159 40.0508 218.273 39.3948 218.273 38.5392C218.273 36.79 217.645 35.5255 216.391 34.746C215.155 33.9474 213.377 33.5481 211.057 33.5481C208.376 33.5481 206.475 34.2706 205.353 35.7157C204.726 36.5143 204.317 37.7026 204.127 39.2807H199.335C199.43 35.516 200.647 32.9017 202.986 31.4376C205.344 29.9545 208.072 29.213 211.171 29.213C214.765 29.213 217.683 29.8975 219.927 31.2665C222.152 32.6355 223.264 34.765 223.264 37.6551V55.2522C223.264 55.7846 223.369 56.2124 223.578 56.5356C223.806 56.8589 224.272 57.0205 224.975 57.0205C225.203 57.0205 225.46 57.011 225.745 56.992C226.03 56.954 226.335 56.9064 226.658 56.8494V60.6426C225.859 60.8708 225.251 61.0134 224.833 61.0704C224.414 61.1275 223.844 61.156 223.121 61.156C221.353 61.156 220.07 60.5285 219.271 59.2736C218.853 58.6081 218.558 57.667 218.387 56.4501C217.341 57.8191 215.839 59.0074 213.881 60.0152C211.922 61.0229 209.764 61.5267 207.407 61.5267C204.574 61.5267 202.254 60.6711 200.448 58.9599C198.66 57.2296 197.767 55.0716 197.767 52.4857C197.767 49.6527 198.651 47.4566 200.419 45.8975C202.187 44.3384 204.507 43.3782 207.378 43.0169L215.563 41.9902ZM235.926 50.9171C236.078 52.6283 236.506 53.9403 237.209 54.8529C238.502 56.5071 240.746 57.3342 243.94 57.3342C245.842 57.3342 247.515 56.9254 248.96 56.1078C250.405 55.2712 251.127 53.9878 251.127 52.2576C251.127 50.9456 250.547 49.9474 249.388 49.2629C248.646 48.8446 247.182 48.3598 244.995 47.8084L240.917 46.7816C238.312 46.1352 236.392 45.4127 235.156 44.6141C232.95 43.2261 231.848 41.3057 231.848 38.8529C231.848 35.9629 232.884 33.6242 234.956 31.8369C237.048 30.0496 239.852 29.156 243.37 29.156C247.971 29.156 251.289 30.5059 253.323 33.2059C254.597 34.9171 255.215 36.7614 255.177 38.7389H250.329C250.234 37.579 249.825 36.5238 249.102 35.5731C247.924 34.2231 245.88 33.5481 242.971 33.5481C241.031 33.5481 239.558 33.9189 238.55 34.6604C237.561 35.402 237.067 36.3812 237.067 37.598C237.067 38.929 237.723 39.9938 239.035 40.7923C239.795 41.2677 240.917 41.686 242.4 42.0472L245.794 42.8743C249.483 43.768 251.954 44.6331 253.209 45.4697C255.206 46.7816 256.204 48.8446 256.204 51.6586C256.204 54.3776 255.168 56.7258 253.095 58.7032C251.042 60.6806 247.905 61.6693 243.684 61.6693C239.139 61.6693 235.916 60.6426 234.015 58.5891C232.133 56.5166 231.125 53.9593 230.992 50.9171H235.926Z" fill="white"/>
<defs>
<clipPath id="clip0_5328_2631">
<rect width="80" height="80" fill="white"/>
</clipPath>
</defs>
</svg>
