<svg width="469" height="80" viewBox="0 0 469 80" fill="none" xmlns="http://www.w3.org/2000/svg">
<g clip-path="url(#clip0_5359_2871)">
<path d="M120.027 21.7698C117.956 21.7698 116.01 22.5719 114.552 24.0291L108.663 29.9023C107.075 31.4867 106.258 33.6867 106.426 35.9421C106.437 36.0652 106.449 36.1883 106.461 36.3153C106.672 38.0467 107.433 39.6072 108.663 40.8303C109.511 41.6761 110.447 42.2123 111.582 42.5856C111.642 42.927 111.673 43.2724 111.673 43.618C111.673 45.1747 111.068 46.6359 109.969 47.7319L109.607 48.0933C107.64 47.4221 105.999 46.4414 104.518 44.9641C102.551 43.0024 101.249 40.5245 100.76 37.8045L100.692 37.4271L100.393 37.6695C100.19 37.8322 99.999 38.007 99.8199 38.1856L93.9309 44.0588C90.9128 47.0687 90.9128 51.9729 93.9309 54.9828C95.44 56.4878 97.4228 57.2424 99.4097 57.2424C101.397 57.2424 103.376 56.4878 104.885 54.9828L110.774 49.1099C113.792 46.0997 113.792 41.1996 110.774 38.1856C109.969 37.3836 109.01 36.7799 107.923 36.3908C107.863 36.0373 107.831 35.6839 107.831 35.3386C107.831 33.6468 108.5 32.0426 109.726 30.8195C111.697 31.4906 113.445 32.5788 114.923 34.0519C116.885 36.0096 118.184 38.4835 118.681 41.2115L118.749 41.5887L119.048 41.3466C119.251 41.1838 119.442 41.009 119.625 40.8264L125.514 34.9534C128.532 31.9432 128.536 27.0392 125.514 24.0291C124.053 22.5719 122.109 21.7698 120.035 21.7698H120.027Z" fill="white"/>
<path d="M116.871 0.290527H39.8172C17.862 0.290527 0 18.1043 0 40.0003C0 61.8961 17.862 79.7099 39.8172 79.7099H116.871C138.827 79.7099 156.689 61.8961 156.689 40.0003C156.689 18.1043 138.827 0.290527 116.871 0.290527ZM78.866 62.5474C77.5957 62.8094 76.1662 62.857 75.1947 61.8445C74.8363 62.6664 74.0002 62.2336 73.3551 62.1265C73.2954 62.2931 73.2437 62.4401 73.1879 62.6069C71.0418 62.7499 69.4332 60.5659 68.41 58.9179C66.3791 57.8219 64.0738 57.1548 61.9992 56.0071C61.8798 57.8974 62.294 60.2403 60.4901 61.4594C60.3986 65.0927 66.001 61.8883 66.5145 64.5964C66.1165 64.6401 65.6745 64.5327 65.3559 64.8385C63.8946 66.2563 62.2183 63.7665 60.534 64.795C58.2724 65.9306 58.0455 66.8598 55.2462 67.0941C55.0911 66.8598 55.1547 66.7048 55.286 66.562C56.0745 65.6486 56.1303 64.5726 57.4761 64.1833C56.0905 63.9649 54.9317 64.7275 53.7651 65.331C52.248 65.9505 52.2601 63.9331 49.9268 65.4381C49.6679 65.2278 49.7914 65.0371 49.9387 64.8744C50.5319 64.1517 51.3124 64.0444 52.1924 64.0842C47.8642 61.6777 45.8256 67.0266 43.8267 64.3661C43.2256 64.5249 42.9986 65.0648 42.6203 65.4461C42.2938 65.0888 42.5407 64.6559 42.5567 64.235C42.1664 64.0524 41.6726 63.9649 41.7881 63.3415C41.0236 63.0834 40.4901 63.5361 39.9208 63.9649C39.407 63.5679 40.2671 62.9882 40.4263 62.5751C40.8843 61.7809 41.9274 62.4124 42.457 61.8405C43.9621 60.9868 46.0605 62.3725 47.7807 62.1384C49.1065 62.305 50.7469 60.947 50.0819 59.5928C48.6646 57.7862 48.9153 55.4235 48.8835 53.2633C48.7083 52.0044 45.6782 50.4001 44.8023 49.042C43.7192 47.819 42.8751 46.4014 42.031 45.0077C38.985 39.1265 39.9446 31.5698 36.1061 26.1097C34.3701 27.0668 32.1085 26.6141 30.6115 25.3314C29.8031 26.066 29.7672 27.027 29.7036 28.0477C27.7645 26.1138 28.0074 22.4604 29.5563 20.3082C30.1895 19.4584 30.946 18.7595 31.79 18.144C31.9811 18.005 32.0449 17.87 32.0408 17.6556C33.5739 10.7779 44.0299 12.1042 47.3346 16.9765C49.7317 19.9747 50.4564 23.9415 53.1758 26.7253C56.8349 30.7201 61.0039 34.2383 64.3803 38.4912C67.5737 42.3788 69.8552 46.9374 71.846 51.532C72.6583 53.0566 72.6663 54.9271 73.8689 56.2295C74.462 57.0159 77.3608 59.1562 76.7317 59.9146C77.094 60.7007 79.8016 61.7848 78.8618 62.5474H78.866ZM129.649 39.0869L123.76 44.9599C122.191 46.5246 120.252 47.692 118.149 48.3312L118.042 48.363L118.002 48.4662C117.317 50.2691 116.278 51.8773 114.908 53.2395L109.019 59.1124C106.451 61.6738 103.035 63.0834 99.3955 63.0834C95.7563 63.0834 92.3399 61.6738 89.7717 59.1124C84.4642 53.8192 84.4642 45.21 89.7717 39.9167L95.6607 34.0438C97.2375 32.4713 99.1249 31.3396 101.263 30.6844L101.371 30.6525L101.41 30.5493C102.095 28.7464 103.138 27.1343 104.512 25.7603L110.401 19.8873C112.969 17.326 116.386 15.9163 120.025 15.9163C123.664 15.9163 127.08 17.326 129.649 19.8873C132.217 22.4485 133.63 25.8557 133.63 29.4851C133.63 33.1146 132.217 36.5255 129.649 39.083V39.0869Z" fill="white"/>
<path d="M54.9116 55.4392C54.3939 57.4486 54.2267 60.8675 51.6068 60.9668C51.3918 62.1264 52.4111 62.5631 53.3428 62.1898C54.2626 61.769 54.7005 62.5235 55.0111 63.2739C56.4326 63.4804 58.535 62.8013 58.6146 61.1217C56.4923 59.9026 55.8353 57.5836 54.9155 55.4353L54.9116 55.4392Z" fill="white"/>
<path d="M193.578 21.1047H186.583V63.5362H216.585V56.7771H193.578V21.1047Z" fill="white"/>
<path d="M251.748 63.5364H258.743V63.4608H258.835L258.849 63.1494C258.851 63.0583 258.876 62.2091 258.747 60.9007V45.1088C258.747 39.1676 263.079 36.4628 267.104 36.4628C271.434 36.4628 273.541 38.7965 273.541 43.5992V63.5364H280.537V42.6683C280.537 34.7424 275.5 29.8171 267.397 29.8171C263.953 29.8171 260.88 30.7953 258.466 32.654L258.402 30.399H251.758V63.5364H251.748Z" fill="white"/>
<path d="M309.005 32.8333C306.574 30.8581 303.448 29.8171 299.922 29.8171C290.49 29.8171 284.63 36.3213 284.63 46.7916C284.63 57.2618 290.49 63.8257 299.922 63.8257C303.249 63.8257 306.219 62.92 308.558 61.1963C308.357 66.3325 305.14 69.3832 299.865 69.3832C295.43 69.3832 292.921 67.9711 292.406 65.1875L292.341 64.8415L285.545 66.9143L285.606 67.1941C286.753 72.7264 291.93 76.0288 299.46 76.0288C304.568 76.0288 308.574 74.6388 311.37 71.893C314.191 69.1252 315.62 65.1371 315.62 60.0421V30.399H309.149L309.009 32.8333H309.005ZM308.568 47.0841C308.568 53.4058 305.489 57.1832 300.328 57.1832C294.796 57.1832 291.625 53.3963 291.625 46.7947C291.625 40.1929 294.798 36.4628 300.328 36.4628C305.364 36.4628 308.517 40.2212 308.568 46.2694V47.0841Z" fill="white"/>
<path d="M350.084 50.0807C348.634 54.7701 344.911 57.3554 339.604 57.3554C332.016 57.3554 327.298 51.5935 327.298 42.3186C327.298 33.0434 332.057 27.2815 339.721 27.2815C345.024 27.2815 348.08 29.3605 349.635 34.0185L350.361 36.198L356.966 33.0969L356.345 31.3513C353.83 24.2653 348.021 20.5225 339.547 20.5225C333.789 20.5225 328.901 22.6015 325.411 26.533C321.957 30.4267 320.129 35.8834 320.129 42.3217C320.129 55.5627 327.772 64.1207 339.604 64.1207C347.941 64.1207 354.4 59.7584 356.878 52.4491L357.51 50.5808L350.726 48.0017L350.08 50.0838L350.084 50.0807Z" fill="white"/>
<path d="M376.207 29.817C372.866 29.817 369.895 30.7323 367.561 32.4717V17.0383H360.566V63.5394H367.561V45.112C367.561 39.1331 371.891 36.4094 375.918 36.4094C380.248 36.4094 382.355 38.7431 382.355 43.5456V63.5427H389.35V42.6147C389.35 34.843 384.193 29.8235 376.211 29.8235L376.207 29.817Z" fill="white"/>
<path d="M430.236 16.0381C427.637 16.0381 425.75 17.9252 425.75 20.5231C425.75 23.1209 427.637 25.0082 430.236 25.0082C432.833 25.0082 434.72 23.1209 434.72 20.5231C434.72 17.9252 432.833 16.0381 430.236 16.0381Z" fill="white"/>
<path d="M455.145 29.8171C451.701 29.8171 448.63 30.7953 446.217 32.654L446.15 30.399H439.508V63.5364H446.503V45.1088C446.503 39.1676 450.833 36.4628 454.86 36.4628C459.19 36.4628 461.298 38.7965 461.298 43.5992V63.5364H468.293V42.6683C468.293 34.7424 463.257 29.8171 455.153 29.8171H455.145Z" fill="white"/>
<path d="M433.633 30.399H426.673V46.8263C424.741 45.2033 422.466 43.9767 419.899 43.1748V41.5046C419.899 34.1859 415.095 29.8171 407.046 29.8171C400.507 29.8171 395.618 32.887 393.625 38.2368L393.089 39.6804L398.697 43.8132L399.659 41.3065C400.927 38.0009 403.276 36.4599 407.046 36.4599C410.818 36.4599 412.903 38.2745 412.903 41.8505V42.0363C412.679 42.0267 412.453 42.0205 412.226 42.0173C404.738 41.8977 399.274 43.6497 395.988 47.2162C392.626 50.8646 392.921 54.9627 392.966 55.4156L392.997 55.7301H393.028C393.551 60.8347 398.01 64.112 404.49 64.112C408.059 64.112 411.356 63.1182 413.85 61.3034L413.877 63.5332H419.899V53.1668L419.768 53.0726C418.917 52.4497 417.432 51.6446 415.198 51.3615C414.498 51.2735 413.828 51.2294 413.212 51.2421H412.9V52.1951C412.9 54.3873 410.381 57.4725 404.777 57.4725C400.64 57.4725 400.023 55.7332 400.023 54.6954V54.5885C400.055 54.1231 400.25 52.9844 401.278 51.9245C402.583 50.5752 405.522 48.9965 412.111 49.0971C416.882 49.1725 420.542 50.5061 422.993 53.063C426 56.2019 426.566 60.4983 426.669 62.1808V63.5364H433.629V30.399H433.633Z" fill="white"/>
<path d="M233.662 29.6724C227.124 29.6724 222.234 32.742 220.242 38.0919L219.705 39.5356L225.313 43.6683L226.275 41.1615C227.543 37.856 229.893 36.3149 233.662 36.3149C237.434 36.3149 239.52 38.1297 239.52 41.7057V42.5455L232.316 43.8162C223.871 45.31 219.588 48.9208 219.588 54.5442C219.588 60.1678 224.107 63.9672 231.102 63.9672C234.673 63.9672 237.969 62.9732 240.462 61.1584L240.492 63.3885H246.511V41.3598C246.511 34.0409 241.709 29.6724 233.662 29.6724ZM239.52 49.1001V52.0532C239.52 54.2454 236.999 57.3309 231.395 57.3309C227.259 57.3309 226.644 55.5916 226.644 54.5537C226.644 53.6322 226.644 51.4745 233.971 50.1159L239.52 49.1032V49.1001Z" fill="white"/>
</g>
<defs>
<clipPath id="clip0_5359_2871">
<rect width="468.293" height="80" fill="white"/>
</clipPath>
</defs>
</svg>
