<svg width="276" height="80" viewBox="0 0 276 80" fill="none" xmlns="http://www.w3.org/2000/svg">
<g clip-path="url(#clip0_5328_2682)">
<path d="M56.436 23.234L50.4993 29.1707C60.2473 38.9188 60.2473 54.6036 50.4993 64.2051C40.7512 73.9532 25.0664 73.9532 15.4649 64.2051C5.71684 54.4571 5.71684 38.7722 15.4649 29.1707L30.9299 13.7058L33.1287 11.507V-0.146729L9.82128 23.1607C-3.15169 36.1337 -3.15169 57.0956 9.82128 70.0686C22.7943 83.0416 43.7562 83.0416 56.5093 70.0686C69.409 57.0956 69.409 36.2802 56.436 23.234Z" fill="#EE4C2C"/>
<path d="M44.7823 21.8415C47.1706 21.8415 49.1067 19.9055 49.1067 17.5172C49.1067 15.129 47.1706 13.1929 44.7823 13.1929C42.3941 13.1929 40.458 15.129 40.458 17.5172C40.458 19.9055 42.3941 21.8415 44.7823 21.8415Z" fill="#EE4C2C"/>
</g>
<path d="M105.331 24.3128C109.734 24.3128 112.943 25.1778 114.956 26.9077C116.969 28.6377 117.975 31.0754 117.975 34.2208C117.975 35.6048 117.739 36.9416 117.267 38.2312C116.827 39.4893 116.088 40.6217 115.05 41.6282C114.012 42.6347 112.628 43.4368 110.898 44.0344C109.168 44.6006 107.045 44.8837 104.529 44.8837H100.66V58H96.4135V24.3128H105.331ZM104.953 27.9457H100.66V41.2508H104.057C106.196 41.2508 107.973 41.0306 109.388 40.5902C110.804 40.1184 111.857 39.3792 112.549 38.3727C113.241 37.3662 113.587 36.0451 113.587 34.4095C113.587 32.2392 112.895 30.6193 111.511 29.5499C110.127 28.4804 107.941 27.9457 104.953 27.9457ZM121.866 32.711H126.301L131.774 47.1012C132.089 47.9505 132.372 48.7683 132.623 49.5546C132.906 50.341 133.158 51.1116 133.378 51.8665C133.598 52.5899 133.771 53.2976 133.897 53.9896H134.086C134.275 53.2033 134.574 52.181 134.982 50.9229C135.391 49.6332 135.816 48.3436 136.256 47.054L141.399 32.711H145.881L134.982 61.4914C134.385 63.0641 133.677 64.4323 132.859 65.5961C132.073 66.7914 131.098 67.7036 129.934 68.3326C128.802 68.9932 127.418 69.3234 125.782 69.3234C125.027 69.3234 124.367 69.2763 123.801 69.1819C123.234 69.119 122.747 69.0403 122.338 68.946V65.6433C122.684 65.7062 123.093 65.7691 123.565 65.832C124.068 65.895 124.587 65.9264 125.122 65.9264C126.097 65.9264 126.93 65.7377 127.622 65.3602C128.346 65.0142 128.959 64.4952 129.462 63.8033C129.966 63.1427 130.39 62.3564 130.736 61.4442L132.057 58.0944L121.866 32.711ZM162.525 58H158.279V28.0401H147.757V24.3128H172.999V28.0401H162.525V58ZM197.597 45.3083C197.597 47.4157 197.314 49.2872 196.748 50.9229C196.213 52.527 195.427 53.8953 194.389 55.0276C193.382 56.1599 192.14 57.0249 190.662 57.6226C189.215 58.1887 187.595 58.4718 185.802 58.4718C184.135 58.4718 182.594 58.1887 181.178 57.6226C179.763 57.0249 178.536 56.1599 177.498 55.0276C176.46 53.8953 175.642 52.527 175.045 50.9229C174.478 49.2872 174.195 47.4157 174.195 45.3083C174.195 42.5089 174.667 40.1499 175.611 38.2312C176.554 36.281 177.907 34.8027 179.668 33.7962C181.43 32.7582 183.521 32.2392 185.943 32.2392C188.24 32.2392 190.253 32.7582 191.983 33.7962C193.744 34.8027 195.112 36.281 196.087 38.2312C197.094 40.1499 197.597 42.5089 197.597 45.3083ZM178.489 45.3083C178.489 47.2899 178.74 49.0199 179.244 50.4982C179.778 51.9451 180.596 53.0617 181.697 53.8481C182.798 54.6344 184.198 55.0276 185.896 55.0276C187.595 55.0276 188.994 54.6344 190.095 53.8481C191.196 53.0617 191.998 51.9451 192.502 50.4982C193.036 49.0199 193.304 47.2899 193.304 45.3083C193.304 43.2953 193.036 41.581 192.502 40.1656C191.967 38.7502 191.149 37.665 190.048 36.9101C188.979 36.1238 187.579 35.7306 185.849 35.7306C183.27 35.7306 181.398 36.5798 180.235 38.2784C179.071 39.9769 178.489 42.3202 178.489 45.3083ZM217.388 32.2392C217.86 32.2392 218.363 32.2706 218.898 32.3335C219.464 32.365 219.952 32.4279 220.36 32.5223L219.841 36.3439C219.433 36.2496 218.976 36.1709 218.473 36.108C218.001 36.0451 217.545 36.0137 217.105 36.0137C216.13 36.0137 215.202 36.2181 214.321 36.627C213.441 37.0359 212.654 37.6178 211.962 38.3727C211.27 39.0962 210.72 39.9769 210.311 41.0148C209.933 42.0528 209.745 43.2166 209.745 44.5062V58H205.593V32.711H208.99L209.462 37.3347H209.65C210.185 36.3911 210.83 35.5419 211.585 34.787C212.34 34.0006 213.205 33.3873 214.18 32.9469C215.155 32.4751 216.224 32.2392 217.388 32.2392ZM235.72 58.4718C233.487 58.4718 231.49 58.0157 229.728 57.1036C227.999 56.1914 226.63 54.776 225.624 52.8573C224.649 50.9386 224.161 48.4852 224.161 45.497C224.161 42.3831 224.68 39.8511 225.718 37.9009C226.756 35.9508 228.156 34.5196 229.917 33.6074C231.71 32.6953 233.739 32.2392 236.004 32.2392C237.293 32.2392 238.536 32.3807 239.731 32.6638C240.926 32.9154 241.901 33.23 242.656 33.6074L241.382 37.0516C240.627 36.7686 239.747 36.5012 238.74 36.2496C237.734 35.9979 236.79 35.8721 235.909 35.8721C234.211 35.8721 232.811 36.2338 231.71 36.9573C230.609 37.6807 229.791 38.7502 229.257 40.1656C228.722 41.581 228.455 43.3424 228.455 45.4499C228.455 47.4629 228.722 49.1772 229.257 50.5926C229.791 52.008 230.593 53.0775 231.663 53.8009C232.732 54.5243 234.069 54.8861 235.673 54.8861C237.057 54.8861 238.268 54.7445 239.306 54.4614C240.376 54.1783 241.351 53.8323 242.231 53.4234V57.1036C241.382 57.5439 240.439 57.8742 239.401 58.0944C238.394 58.346 237.167 58.4718 235.72 58.4718ZM253.813 32.6638C253.813 33.2614 253.781 33.8748 253.719 34.5039C253.687 35.133 253.64 35.6991 253.577 36.2024H253.86C254.395 35.3217 255.071 34.5982 255.889 34.0321C256.707 33.4659 257.619 33.0413 258.625 32.7582C259.632 32.4436 260.67 32.2864 261.739 32.2864C263.784 32.2864 265.482 32.6166 266.835 33.2772C268.219 33.9062 269.257 34.897 269.949 36.2496C270.641 37.6021 270.987 39.3635 270.987 41.5338V58H266.882V41.8169C266.882 39.7724 266.426 38.2469 265.514 37.2404C264.602 36.2338 263.17 35.7306 261.22 35.7306C259.333 35.7306 257.855 36.0923 256.785 36.8157C255.716 37.5077 254.945 38.5457 254.473 39.9297C254.033 41.2822 253.813 42.9493 253.813 44.9309V58H249.661V22.1425H253.813V32.6638Z" fill="white"/>
<defs>
<clipPath id="clip0_5328_2682">
<rect width="66.1842" height="79.9634" fill="white"/>
</clipPath>
</defs>
</svg>
