<svg width="17" height="17" viewBox="0 0 17 17" fill="none" xmlns="http://www.w3.org/2000/svg">
<path d="M6.58333 4.08333L6.15333 5.245C5.59 6.76833 5.30833 7.53 4.7525 8.08583C4.19667 8.64167 3.435 8.92333 1.91167 9.48667L0.75 9.91667L1.91167 10.3467C3.435 10.91 4.19667 11.1925 4.7525 11.7475C5.30833 12.3025 5.59 13.065 6.15333 14.5883L6.58333 15.75L7.01333 14.5883C7.57667 13.065 7.85917 12.3033 8.41417 11.7475C8.96917 11.1917 9.73167 10.91 11.255 10.3467L12.4167 9.91667L11.255 9.48667C9.73167 8.92333 8.97 8.64167 8.41417 8.08583C7.85833 7.53 7.57667 6.76833 7.01333 5.245L6.58333 4.08333ZM13.25 0.75L13.0658 1.2475C12.8242 1.90083 12.7033 2.2275 12.4658 2.465C12.2275 2.70333 11.9008 2.82417 11.2475 3.065L10.75 3.25L11.2483 3.43417C11.9008 3.67583 12.2275 3.79667 12.465 4.03417C12.7033 4.2725 12.8242 4.59917 13.065 5.2525L13.25 5.75L13.4342 5.2525C13.6758 4.59917 13.7967 4.2725 14.0342 4.035C14.2725 3.79667 14.5992 3.67583 15.2525 3.435L15.75 3.25L15.2517 3.06583C14.5992 2.82417 14.2725 2.70333 14.035 2.46583C13.7967 2.2275 13.6758 1.90083 13.435 1.2475L13.25 0.75Z" stroke="#ECDB23" stroke-width="1.5" stroke-linejoin="round"/>
</svg>
