<svg width="14" height="15" viewBox="0 0 14 15" fill="none" xmlns="http://www.w3.org/2000/svg">
<path d="M6.831 0C3.00038 0 0 1.72238 0 3.92287V10.899C0 13.0995 2.99925 14.823 6.82987 14.823C10.6605 14.823 13.6609 13.0995 13.6609 10.899V3.924C13.6609 1.7235 10.6605 0.00112492 6.82987 0.00112492M6.82987 0.873C10.0597 0.873 12.7879 2.27025 12.7879 3.924C12.7879 5.57775 10.0597 6.97613 6.82987 6.97613C3.6 6.97613 0.87075 5.57888 0.87075 3.924C0.87075 2.26912 3.6 0.871875 6.831 0.871875M12.789 10.899C12.789 12.5539 10.0609 13.9511 6.831 13.9511C3.60113 13.9511 0.871875 12.5539 0.871875 10.9001V9.35887C2.034 10.5491 4.24237 11.3355 6.831 11.3355C9.41963 11.3355 11.628 10.5491 12.789 9.35887V10.899ZM12.789 7.41263C12.789 9.06638 10.0609 10.4636 6.831 10.4636C3.60113 10.4636 0.871875 9.06638 0.871875 7.41263V5.86912C2.034 7.05825 4.24237 7.84575 6.831 7.84575C9.41963 7.84575 11.628 7.05825 12.789 5.86912V7.41263Z" fill="#70EC23"/>
</svg>
