<svg width="16" height="16" viewBox="0 0 16 16" fill="none" xmlns="http://www.w3.org/2000/svg">
<path d="M0.535714 0C0.677795 0 0.814056 0.0564411 0.914522 0.156907C1.01499 0.257373 1.07143 0.393634 1.07143 0.535714V13.0357C1.07143 13.462 1.24075 13.8707 1.54215 14.1721C1.84355 14.4735 2.25233 14.6429 2.67857 14.6429H15.1786C15.3207 14.6429 15.4569 14.6993 15.5574 14.7998C15.6578 14.9002 15.7143 15.0365 15.7143 15.1786C15.7143 15.3207 15.6578 15.4569 15.5574 15.5574C15.4569 15.6578 15.3207 15.7143 15.1786 15.7143H2.67857C1.96817 15.7143 1.28686 15.4321 0.784535 14.9298C0.282206 14.4274 0 13.7461 0 13.0357V0.535714C0 0.393634 0.0564411 0.257373 0.156907 0.156907C0.257373 0.0564411 0.393634 0 0.535714 0ZM13.5286 3.21429L9.46429 7.27857L7.7 5.51429C7.59955 5.41396 7.46339 5.35761 7.32143 5.35761C7.17946 5.35761 7.0433 5.41396 6.94286 5.51429L3.01429 9.44286C2.96165 9.4919 2.91944 9.55104 2.89016 9.61676C2.86088 9.68247 2.84513 9.75341 2.84386 9.82534C2.84259 9.89727 2.85583 9.96872 2.88277 10.0354C2.90971 10.1021 2.94982 10.1627 3.00069 10.2136C3.05156 10.2645 3.11215 10.3046 3.17886 10.3315C3.24556 10.3585 3.31701 10.3717 3.38894 10.3704C3.46088 10.3692 3.53181 10.3534 3.59753 10.3241C3.66324 10.2948 3.72238 10.2526 3.77143 10.2L7.32143 6.65L9.08571 8.41429C9.18616 8.51461 9.32232 8.57096 9.46429 8.57096C9.60625 8.57096 9.74241 8.51461 9.84286 8.41429L14.2857 3.97143V6.60714C14.2857 6.74922 14.3422 6.88548 14.4426 6.98595C14.5431 7.08642 14.6793 7.14286 14.8214 7.14286C14.9635 7.14286 15.0998 7.08642 15.2002 6.98595C15.3007 6.88548 15.3571 6.74922 15.3571 6.60714V2.67857C15.3571 2.53649 15.3007 2.40023 15.2002 2.29976C15.0998 2.1993 14.9635 2.14286 14.8214 2.14286H10.8929C10.7508 2.14286 10.6145 2.1993 10.514 2.29976C10.4136 2.40023 10.3571 2.53649 10.3571 2.67857C10.3571 2.82065 10.4136 2.95691 10.514 3.05738C10.6145 3.15784 10.7508 3.21429 10.8929 3.21429H13.5286Z" fill="#12B8FF"/>
</svg>
